<?xml version="1.0" encoding="UTF-8"?>
<svg xmlns="http://www.w3.org/2000/svg" xmlns:xlink="http://www.w3.org/1999/xlink" width="87px" height="66px" viewBox="0 0 87 66" version="1.1">
<g id="surface1">
<path style=" stroke:none;fill-rule:nonzero;fill:rgb(99.607843%,99.607843%,99.607843%);fill-opacity:1;" d="M 62.882812 17.9375 C 63.328125 18.285156 63.671875 18.671875 63.742188 19.246094 C 63.742188 19.335938 63.742188 19.417969 63.742188 19.503906 C 63.742188 19.652344 63.742188 19.652344 63.75 19.800781 C 63.742188 19.910156 63.742188 20.011719 63.742188 20.121094 C 63.742188 20.238281 63.75 20.355469 63.75 20.46875 C 63.75 20.851562 63.75 21.238281 63.75 21.617188 C 63.75 21.894531 63.75 22.171875 63.75 22.441406 C 63.757812 23.191406 63.757812 23.9375 63.757812 24.679688 C 63.757812 25.148438 63.757812 25.613281 63.757812 26.078125 C 63.761719 27.367188 63.761719 28.664062 63.761719 29.953125 C 63.761719 30.035156 63.761719 30.113281 63.761719 30.203125 C 63.761719 30.371094 63.761719 30.539062 63.761719 30.707031 C 63.761719 30.78125 63.761719 30.867188 63.761719 30.957031 C 63.761719 31.078125 63.761719 31.078125 63.761719 31.207031 C 63.761719 32.554688 63.769531 33.902344 63.769531 35.25 C 63.773438 36.636719 63.78125 38.019531 63.78125 39.398438 C 63.78125 40.179688 63.78125 40.960938 63.78125 41.734375 C 63.789062 42.460938 63.789062 43.195312 63.78125 43.925781 C 63.78125 44.195312 63.789062 44.460938 63.789062 44.730469 C 63.789062 45.097656 63.789062 45.464844 63.789062 45.832031 C 63.789062 45.9375 63.789062 46.039062 63.789062 46.148438 C 63.78125 46.859375 63.621094 47.320312 63.121094 47.824219 C 62.589844 48.160156 62.132812 48.261719 61.523438 48.160156 C 60.875 47.945312 60.351562 47.515625 59.8125 47.109375 C 59.640625 46.980469 59.460938 46.851562 59.285156 46.722656 C 58.800781 46.359375 58.320312 46 57.835938 45.640625 C 57.445312 45.34375 57.050781 45.046875 56.652344 44.757812 C 56.582031 44.703125 56.511719 44.652344 56.441406 44.59375 C 56.0625 44.316406 55.683594 44.039062 55.304688 43.769531 C 55.226562 43.707031 55.144531 43.648438 55.0625 43.589844 C 54.90625 43.480469 54.753906 43.371094 54.597656 43.253906 C 54.113281 42.898438 53.707031 42.527344 53.433594 41.964844 C 53.386719 41.296875 53.40625 40.871094 53.785156 40.296875 C 54.324219 39.800781 54.671875 39.644531 55.382812 39.65625 C 56.476562 39.800781 57.453125 40.835938 58.273438 41.488281 C 59.152344 42.140625 59.152344 42.140625 60.050781 42.804688 C 60.050781 36.292969 60.050781 29.785156 60.050781 23.074219 C 59.429688 23.550781 58.800781 24.023438 58.15625 24.511719 C 57.804688 24.769531 57.453125 25.035156 57.101562 25.285156 C 57.015625 25.347656 56.925781 25.414062 56.835938 25.476562 C 56.222656 25.929688 55.601562 26.375 54.976562 26.8125 C 54.304688 27.296875 53.636719 27.785156 52.976562 28.289062 C 52.246094 28.84375 51.496094 29.382812 50.753906 29.925781 C 50.386719 30.195312 50.015625 30.46875 49.648438 30.730469 C 48.667969 31.453125 47.679688 32.167969 46.691406 32.878906 C 46.769531 32.941406 46.855469 33.007812 46.9375 33.078125 C 47.1875 33.277344 47.429688 33.488281 47.667969 33.703125 C 48.136719 34.101562 48.628906 34.457031 49.128906 34.8125 C 50.796875 35.976562 50.796875 35.976562 51.066406 36.707031 C 51.128906 37.332031 51.054688 37.730469 50.714844 38.257812 C 50.257812 38.75 49.886719 38.980469 49.21875 39.011719 C 48.636719 38.941406 48.226562 38.601562 47.757812 38.257812 C 47.597656 38.144531 47.4375 38.035156 47.277344 37.917969 C 46.53125 37.382812 45.800781 36.847656 45.082031 36.28125 C 45 36.214844 44.917969 36.152344 44.828125 36.082031 C 44.667969 35.953125 44.5 35.824219 44.339844 35.695312 C 44.101562 35.496094 44.101562 35.496094 43.738281 35.269531 C 43.3125 35.332031 43.058594 35.519531 42.71875 35.777344 C 42.601562 35.867188 42.488281 35.953125 42.371094 36.042969 C 42.308594 36.085938 42.242188 36.140625 42.179688 36.183594 C 41.757812 36.507812 41.320312 36.816406 40.890625 37.132812 C 40.800781 37.203125 40.710938 37.265625 40.613281 37.335938 C 38.269531 39.046875 38.269531 39.046875 37.375 38.917969 C 36.8125 38.792969 36.585938 38.582031 36.253906 38.117188 C 36.011719 37.640625 35.964844 37.234375 36.054688 36.707031 C 36.390625 35.945312 36.835938 35.585938 37.511719 35.121094 C 37.695312 34.984375 37.890625 34.855469 38.082031 34.722656 C 38.171875 34.648438 38.269531 34.585938 38.371094 34.515625 C 38.804688 34.207031 39.242188 33.882812 39.671875 33.5625 C 39.820312 33.453125 39.96875 33.339844 40.113281 33.230469 C 40.269531 33.117188 40.269531 33.117188 40.429688 33 C 40.339844 32.929688 40.25 32.859375 40.160156 32.789062 C 39.972656 32.632812 39.789062 32.476562 39.601562 32.324219 C 38.84375 31.691406 38.035156 31.125 37.230469 30.558594 C 36.53125 30.0625 35.835938 29.558594 35.152344 29.050781 C 33.734375 27.984375 32.3125 26.941406 30.867188 25.917969 C 30.058594 25.34375 29.269531 24.757812 28.488281 24.152344 C 28.226562 23.949219 27.964844 23.75 27.699219 23.542969 C 27.578125 23.453125 27.464844 23.363281 27.339844 23.273438 C 27.109375 23.0625 27.109375 23.0625 26.949219 23.074219 C 26.949219 29.546875 26.949219 36.015625 26.949219 42.6875 C 27.355469 42.6875 27.644531 42.363281 27.957031 42.125 C 28.117188 42.003906 28.277344 41.882812 28.429688 41.765625 C 28.519531 41.703125 28.605469 41.636719 28.695312 41.570312 C 29.164062 41.21875 29.636719 40.871094 30.113281 40.515625 C 30.207031 40.449219 30.296875 40.378906 30.394531 40.308594 C 30.476562 40.25 30.558594 40.1875 30.648438 40.121094 C 30.726562 40.0625 30.804688 40.007812 30.882812 39.949219 C 31.382812 39.625 31.933594 39.625 32.507812 39.695312 C 33.113281 40.011719 33.472656 40.355469 33.6875 41.011719 C 33.734375 41.636719 33.675781 42.035156 33.335938 42.566406 C 32.863281 42.984375 32.363281 43.359375 31.847656 43.726562 C 31.292969 44.125 30.738281 44.53125 30.203125 44.957031 C 29.476562 45.523438 28.734375 46.070312 27.984375 46.601562 C 27.777344 46.753906 27.570312 46.902344 27.359375 47.050781 C 27.226562 47.148438 27.089844 47.242188 26.957031 47.339844 C 26.839844 47.425781 26.71875 47.507812 26.597656 47.597656 C 25.976562 48 25.445312 48.269531 24.691406 48.132812 C 24.210938 47.984375 23.878906 47.734375 23.566406 47.339844 C 23.339844 46.84375 23.351562 46.398438 23.359375 45.859375 C 23.359375 45.75 23.359375 45.632812 23.359375 45.515625 C 23.359375 45.128906 23.359375 44.75 23.359375 44.363281 C 23.359375 44.09375 23.359375 43.816406 23.359375 43.539062 C 23.351562 42.796875 23.351562 42.050781 23.359375 41.300781 C 23.359375 40.523438 23.359375 39.742188 23.359375 38.960938 C 23.351562 37.570312 23.359375 36.171875 23.359375 34.777344 C 23.359375 33.515625 23.359375 32.253906 23.359375 30.984375 C 23.359375 29.519531 23.351562 28.050781 23.359375 26.582031 C 23.359375 25.808594 23.359375 25.027344 23.359375 24.246094 C 23.351562 23.519531 23.359375 22.789062 23.359375 22.054688 C 23.359375 21.792969 23.359375 21.519531 23.359375 21.25 C 23.359375 20.890625 23.359375 20.523438 23.359375 20.15625 C 23.359375 20.050781 23.359375 19.941406 23.359375 19.832031 C 23.367188 19.234375 23.429688 18.8125 23.757812 18.292969 C 24.171875 17.898438 24.527344 17.777344 25.085938 17.730469 C 25.910156 17.769531 26.417969 18.164062 27.070312 18.652344 C 27.230469 18.769531 27.398438 18.890625 27.558594 19.007812 C 28.109375 19.398438 28.65625 19.804688 29.195312 20.207031 C 29.269531 20.265625 29.355469 20.320312 29.433594 20.378906 C 29.71875 20.59375 30.007812 20.8125 30.296875 21.023438 C 31.574219 21.972656 32.855469 22.90625 34.144531 23.820312 C 34.824219 24.304688 35.492188 24.796875 36.144531 25.296875 C 37.3125 26.1875 38.503906 27.039062 39.703125 27.890625 C 40.28125 28.300781 40.851562 28.714844 41.417969 29.144531 C 41.523438 29.230469 41.640625 29.3125 41.75 29.398438 C 41.980469 29.578125 42.210938 29.757812 42.441406 29.933594 C 42.558594 30.023438 42.671875 30.113281 42.789062 30.203125 C 42.890625 30.285156 42.992188 30.363281 43.101562 30.449219 C 43.367188 30.628906 43.367188 30.628906 43.621094 30.597656 C 43.910156 30.460938 44.140625 30.300781 44.390625 30.105469 C 44.5625 29.976562 44.5625 29.976562 44.738281 29.847656 C 44.808594 29.796875 44.871094 29.746094 44.9375 29.699219 C 45.367188 29.371094 45.800781 29.050781 46.230469 28.726562 C 46.378906 28.617188 46.378906 28.617188 46.527344 28.507812 C 47.148438 28.042969 47.777344 27.585938 48.40625 27.140625 C 49.117188 26.636719 49.824219 26.117188 50.527344 25.59375 C 51.9375 24.539062 53.363281 23.492188 54.804688 22.46875 C 55.464844 22.003906 56.117188 21.519531 56.761719 21.03125 C 57.914062 20.148438 59.09375 19.289062 60.292969 18.472656 C 60.363281 18.421875 60.441406 18.367188 60.511719 18.316406 C 61.378906 17.738281 61.902344 17.582031 62.882812 17.9375 Z M 62.882812 17.9375 "/>
<path style=" stroke:none;fill-rule:nonzero;fill:rgb(99.215686%,99.607843%,99.607843%);fill-opacity:1;" d="M 43.972656 38.859375 C 44.6875 39.125 45.296875 39.585938 45.898438 40.039062 C 45.996094 40.109375 46.085938 40.171875 46.179688 40.246094 C 46.46875 40.457031 46.757812 40.675781 47.046875 40.890625 C 47.328125 41.101562 47.609375 41.3125 47.890625 41.527344 C 48.085938 41.667969 48.269531 41.804688 48.457031 41.945312 C 49.085938 42.410156 49.714844 42.867188 50.347656 43.320312 C 50.59375 43.492188 50.835938 43.667969 51.074219 43.839844 C 51.21875 43.945312 51.367188 44.046875 51.523438 44.148438 C 52.917969 45.144531 52.917969 45.144531 53.195312 45.910156 C 53.285156 46.488281 53.253906 46.871094 52.984375 47.390625 C 52.546875 47.914062 52.253906 48.132812 51.554688 48.191406 C 50.558594 48.164062 49.808594 47.449219 49.054688 46.871094 C 48.855469 46.722656 48.65625 46.574219 48.457031 46.425781 C 48.355469 46.347656 48.246094 46.269531 48.136719 46.195312 C 47.839844 45.972656 47.546875 45.761719 47.25 45.542969 C 47.066406 45.414062 46.886719 45.277344 46.699219 45.144531 C 46.558594 45.046875 46.558594 45.046875 46.425781 44.941406 C 45.777344 44.472656 45.140625 43.988281 44.511719 43.5 C 44.179688 43.261719 43.882812 43.066406 43.5 42.925781 C 43.171875 43.027344 43.171875 43.027344 42.878906 43.261719 C 42.769531 43.339844 42.652344 43.421875 42.539062 43.507812 C 42.128906 43.816406 41.730469 44.132812 41.339844 44.460938 C 40.910156 44.800781 40.46875 45.125 40.019531 45.445312 C 39.570312 45.761719 39.121094 46.089844 38.679688 46.425781 C 36.285156 48.21875 36.285156 48.21875 35.34375 48.183594 C 34.792969 48.011719 34.40625 47.804688 34.042969 47.347656 C 33.84375 46.742188 33.855469 46.160156 34.027344 45.550781 C 34.742188 44.550781 35.941406 43.886719 36.933594 43.191406 C 37.472656 42.804688 38.011719 42.417969 38.542969 42.03125 C 38.632812 41.964844 38.714844 41.902344 38.8125 41.828125 C 39.410156 41.390625 40.003906 40.941406 40.59375 40.488281 C 42.902344 38.722656 42.902344 38.722656 43.972656 38.859375 Z M 43.972656 38.859375 "/>
</g>
</svg>
