<?xml version="1.0" encoding="UTF-8"?>
<svg xmlns="http://www.w3.org/2000/svg" xmlns:xlink="http://www.w3.org/1999/xlink" width="24px" height="24px" viewBox="0 0 24 24" version="1.1">
<g id="surface1">
<path style=" stroke:none;fill-rule:nonzero;fill:rgb(100%,100%,100%);fill-opacity:1;" d="M 8.390625 3.046875 C 8.46875 3.09375 8.542969 3.144531 8.617188 3.191406 C 9.050781 3.472656 9.34375 3.617188 9.859375 3.507812 C 10 3.476562 10.136719 3.441406 10.269531 3.40625 C 10.488281 3.355469 10.703125 3.335938 10.921875 3.316406 C 10.964844 3.3125 11.007812 3.308594 11.050781 3.304688 C 11.972656 3.234375 12.96875 3.21875 13.871094 3.4375 C 14.347656 3.554688 14.683594 3.625 15.117188 3.359375 C 15.21875 3.292969 15.320312 3.226562 15.421875 3.15625 C 16.21875 2.625 17.332031 2.339844 18.28125 2.507812 C 18.527344 2.585938 18.722656 2.707031 18.875 2.925781 C 19.292969 3.757812 19.554688 4.847656 19.371094 5.773438 C 19.285156 6.21875 19.285156 6.21875 19.441406 6.632812 C 19.519531 6.738281 19.597656 6.84375 19.679688 6.953125 C 19.957031 7.351562 20.085938 7.875 20.203125 8.34375 C 20.214844 8.382812 20.222656 8.421875 20.234375 8.464844 C 20.605469 10.179688 20.261719 12.269531 19.320312 13.75 C 18.476562 14.957031 17.246094 15.65625 15.84375 16.03125 C 15.796875 16.03125 15.75 16.03125 15.703125 16.03125 C 15.710938 16.066406 15.722656 16.105469 15.730469 16.140625 C 16.050781 17.414062 15.882812 18.808594 15.84375 20.109375 C 15.894531 20.125 15.945312 20.136719 16 20.152344 C 16.277344 20.234375 16.398438 20.359375 16.539062 20.605469 C 16.671875 20.894531 16.699219 21.171875 16.609375 21.480469 C 16.488281 21.761719 16.28125 21.964844 16 22.085938 C 15.578125 22.195312 15.027344 22.195312 14.632812 22.003906 C 14.214844 21.734375 13.984375 21.421875 13.828125 20.953125 C 13.824219 20.832031 13.820312 20.710938 13.820312 20.589844 C 13.820312 20.550781 13.820312 20.515625 13.820312 20.476562 C 13.820312 20.398438 13.820312 20.316406 13.820312 20.238281 C 13.816406 20.109375 13.816406 19.980469 13.816406 19.851562 C 13.8125 19.488281 13.8125 19.125 13.808594 18.761719 C 13.808594 18.539062 13.808594 18.316406 13.804688 18.097656 C 13.804688 18.011719 13.804688 17.925781 13.804688 17.84375 C 13.816406 16.902344 13.816406 16.902344 13.382812 16.097656 C 13.15625 15.851562 13.042969 15.601562 13.023438 15.265625 C 13.042969 14.9375 13.191406 14.699219 13.417969 14.46875 C 13.75 14.265625 14.128906 14.21875 14.507812 14.164062 C 15.703125 13.972656 16.785156 13.589844 17.542969 12.589844 C 18.230469 11.59375 18.390625 10.082031 18.179688 8.910156 C 18.023438 8.242188 17.75 7.730469 17.3125 7.207031 C 17.082031 6.929688 17.078125 6.628906 17.109375 6.28125 C 17.136719 6.171875 17.171875 6.066406 17.214844 5.960938 C 17.296875 5.726562 17.304688 5.496094 17.304688 5.25 C 17.304688 5.167969 17.304688 5.167969 17.304688 5.082031 C 17.296875 4.929688 17.277344 4.789062 17.25 4.640625 C 16.582031 4.882812 15.941406 5.203125 15.363281 5.621094 C 15.039062 5.820312 14.589844 5.722656 14.242188 5.640625 C 14.195312 5.628906 14.152344 5.617188 14.105469 5.609375 C 12.625 5.273438 11.132812 5.3125 9.65625 5.660156 C 9.078125 5.789062 8.746094 5.691406 8.253906 5.382812 C 8 5.226562 7.746094 5.085938 7.484375 4.953125 C 7.453125 4.9375 7.421875 4.921875 7.394531 4.90625 C 7.167969 4.792969 6.941406 4.714844 6.703125 4.640625 C 6.671875 5.402344 6.671875 5.402344 6.84375 6.140625 C 6.9375 6.425781 6.929688 6.738281 6.816406 7.015625 C 6.722656 7.203125 6.597656 7.34375 6.460938 7.496094 C 5.757812 8.304688 5.707031 9.410156 5.777344 10.425781 C 5.867188 11.40625 6.15625 12.460938 6.917969 13.136719 C 7.765625 13.8125 8.773438 14.085938 9.835938 14.226562 C 10.179688 14.277344 10.492188 14.351562 10.726562 14.621094 C 10.9375 14.925781 10.960938 15.199219 10.921875 15.5625 C 10.859375 15.777344 10.746094 15.929688 10.59375 16.09375 C 10.28125 16.4375 10.210938 16.929688 10.210938 17.375 C 10.210938 17.414062 10.210938 17.449219 10.210938 17.484375 C 10.210938 17.5625 10.210938 17.640625 10.210938 17.714844 C 10.210938 17.839844 10.210938 17.960938 10.207031 18.085938 C 10.207031 18.433594 10.203125 18.78125 10.203125 19.128906 C 10.203125 19.34375 10.203125 19.558594 10.199219 19.769531 C 10.199219 19.851562 10.199219 19.933594 10.199219 20.015625 C 10.199219 20.667969 10.164062 21.253906 9.679688 21.746094 C 9.238281 22.113281 8.765625 22.164062 8.210938 22.136719 C 7.933594 22.109375 7.742188 21.996094 7.550781 21.800781 C 7.351562 21.539062 7.292969 21.277344 7.3125 20.953125 C 7.367188 20.667969 7.519531 20.445312 7.734375 20.25 C 7.96875 20.109375 7.96875 20.109375 8.109375 20.109375 C 8.109375 19.800781 8.109375 19.492188 8.109375 19.171875 C 7.984375 19.175781 7.859375 19.175781 7.730469 19.179688 C 6.941406 19.1875 6.253906 19.003906 5.625 18.515625 C 5.578125 18.476562 5.578125 18.476562 5.527344 18.441406 C 5.300781 18.253906 5.125 18.042969 4.941406 17.8125 C 4.777344 17.605469 4.605469 17.40625 4.433594 17.203125 C 4.359375 17.121094 4.289062 17.035156 4.21875 16.949219 C 3.988281 16.675781 3.738281 16.464844 3.414062 16.308594 C 3.140625 16.179688 2.972656 15.984375 2.847656 15.714844 C 2.75 15.421875 2.785156 15.167969 2.914062 14.890625 C 3.050781 14.640625 3.195312 14.5 3.457031 14.375 C 3.988281 14.261719 4.40625 14.421875 4.859375 14.707031 C 5.101562 14.878906 5.316406 15.078125 5.53125 15.28125 C 5.578125 15.324219 5.578125 15.324219 5.625 15.367188 C 5.824219 15.554688 5.988281 15.757812 6.15625 15.972656 C 6.632812 16.65625 6.632812 16.65625 7.3125 17.0625 C 7.578125 17.09375 7.84375 17.101562 8.109375 17.109375 C 8.117188 17.039062 8.117188 17.039062 8.125 16.96875 C 8.167969 16.652344 8.207031 16.339844 8.296875 16.03125 C 8.207031 16.015625 8.207031 16.015625 8.113281 16 C 6.792969 15.730469 5.503906 14.960938 4.746094 13.835938 C 3.734375 12.277344 3.414062 10.210938 3.78125 8.398438 C 3.925781 7.746094 4.164062 6.96875 4.628906 6.472656 C 4.71875 6.320312 4.675781 6.171875 4.648438 6.007812 C 4.640625 5.933594 4.628906 5.859375 4.621094 5.789062 C 4.613281 5.734375 4.613281 5.734375 4.605469 5.679688 C 4.519531 4.964844 4.644531 4.210938 4.871094 3.527344 C 4.878906 3.492188 4.890625 3.460938 4.902344 3.425781 C 5.027344 3.070312 5.1875 2.757812 5.53125 2.578125 C 6.472656 2.257812 7.546875 2.609375 8.390625 3.046875 Z M 8.390625 3.046875 "/>
</g>
</svg>
