<?xml version="1.0" encoding="UTF-8"?>
<svg xmlns="http://www.w3.org/2000/svg" xmlns:xlink="http://www.w3.org/1999/xlink" width="24px" height="24px" viewBox="0 0 24 24" version="1.1">
<g id="surface1">
<path style=" stroke:none;fill-rule:nonzero;fill:rgb(100%,100%,100%);fill-opacity:1;" d="M 15.691406 2.832031 C 15.738281 2.835938 15.785156 2.839844 15.832031 2.839844 C 16.34375 2.875 16.855469 2.910156 17.363281 2.953125 C 17.410156 2.957031 17.453125 2.960938 17.5 2.964844 C 18.332031 3.035156 19.101562 3.339844 19.734375 3.890625 C 19.78125 3.925781 19.824219 3.964844 19.871094 4 C 20.578125 4.589844 20.949219 5.550781 21.035156 6.445312 C 21.050781 6.632812 21.066406 6.820312 21.078125 7.007812 C 21.082031 7.09375 21.085938 7.175781 21.09375 7.261719 C 21.105469 7.484375 21.121094 7.707031 21.132812 7.929688 C 21.140625 8.058594 21.148438 8.183594 21.15625 8.308594 C 21.304688 10.816406 21.300781 13.355469 21.148438 15.859375 C 21.140625 15.988281 21.132812 16.117188 21.125 16.246094 C 21.113281 16.460938 21.097656 16.679688 21.085938 16.894531 C 21.078125 16.972656 21.074219 17.050781 21.070312 17.132812 C 21.027344 17.769531 20.9375 18.382812 20.632812 18.953125 C 20.617188 18.984375 20.601562 19.015625 20.585938 19.050781 C 20.453125 19.300781 20.296875 19.519531 20.109375 19.734375 C 20.082031 19.773438 20.054688 19.808594 20.023438 19.847656 C 19.363281 20.628906 18.351562 20.964844 17.363281 21.054688 C 17.175781 21.070312 16.988281 21.085938 16.796875 21.101562 C 16.695312 21.105469 16.59375 21.113281 16.492188 21.121094 C 16.183594 21.144531 15.871094 21.167969 15.5625 21.1875 C 15.515625 21.191406 15.472656 21.195312 15.425781 21.195312 C 13.117188 21.34375 10.792969 21.335938 8.484375 21.1875 C 8.433594 21.183594 8.386719 21.179688 8.335938 21.179688 C 8.015625 21.15625 7.699219 21.136719 7.378906 21.109375 C 7.277344 21.105469 7.175781 21.097656 7.074219 21.089844 C 6.367188 21.039062 5.683594 20.972656 5.046875 20.632812 C 5.015625 20.617188 4.984375 20.601562 4.949219 20.585938 C 4.699219 20.453125 4.480469 20.296875 4.265625 20.109375 C 4.21875 20.074219 4.175781 20.035156 4.128906 20 C 3.417969 19.410156 3.050781 18.445312 2.964844 17.546875 C 2.949219 17.351562 2.933594 17.15625 2.921875 16.960938 C 2.917969 16.871094 2.914062 16.785156 2.90625 16.695312 C 2.890625 16.410156 2.875 16.128906 2.859375 15.84375 C 2.855469 15.773438 2.855469 15.773438 2.851562 15.699219 C 2.71875 13.171875 2.722656 10.636719 2.859375 8.109375 C 2.863281 8.0625 2.863281 8.015625 2.867188 7.964844 C 2.882812 7.691406 2.898438 7.417969 2.914062 7.144531 C 2.921875 7.0625 2.925781 6.976562 2.929688 6.894531 C 2.96875 6.25 3.058594 5.625 3.367188 5.046875 C 3.382812 5.015625 3.398438 4.984375 3.414062 4.949219 C 3.546875 4.699219 3.703125 4.480469 3.890625 4.265625 C 3.945312 4.199219 3.945312 4.199219 4 4.128906 C 4.625 3.378906 5.621094 3.039062 6.566406 2.953125 C 6.832031 2.933594 7.101562 2.914062 7.367188 2.898438 C 7.476562 2.890625 7.585938 2.882812 7.695312 2.875 C 8.574219 2.8125 9.453125 2.765625 10.335938 2.738281 C 10.371094 2.738281 10.40625 2.738281 10.441406 2.734375 C 12.191406 2.6875 13.941406 2.722656 15.691406 2.832031 Z M 7.613281 4.429688 C 7.574219 4.433594 7.535156 4.433594 7.492188 4.4375 C 6.511719 4.507812 5.714844 4.59375 5.015625 5.34375 C 4.503906 5.949219 4.496094 6.699219 4.453125 7.453125 C 4.449219 7.515625 4.445312 7.582031 4.441406 7.644531 C 4.253906 10.660156 4.265625 13.679688 4.460938 16.691406 C 4.46875 16.777344 4.472656 16.859375 4.476562 16.941406 C 4.527344 17.761719 4.71875 18.40625 5.328125 18.992188 C 5.75 19.324219 6.238281 19.457031 6.757812 19.5 C 6.800781 19.503906 6.84375 19.507812 6.886719 19.511719 C 7.023438 19.523438 7.160156 19.535156 7.296875 19.546875 C 7.347656 19.550781 7.394531 19.554688 7.441406 19.558594 C 10.050781 19.777344 12.679688 19.820312 15.289062 19.648438 C 15.382812 19.644531 15.476562 19.636719 15.566406 19.632812 C 15.878906 19.613281 16.191406 19.589844 16.503906 19.566406 C 16.605469 19.558594 16.707031 19.550781 16.808594 19.546875 C 17.679688 19.484375 18.328125 19.347656 18.949219 18.6875 C 19.285156 18.296875 19.445312 17.851562 19.488281 17.335938 C 19.492188 17.304688 19.496094 17.273438 19.496094 17.242188 C 19.507812 17.132812 19.515625 17.027344 19.523438 16.921875 C 19.527344 16.882812 19.53125 16.847656 19.53125 16.808594 C 19.75 13.976562 19.777344 11.109375 19.601562 8.277344 C 19.59375 8.152344 19.585938 8.023438 19.578125 7.898438 C 19.566406 7.6875 19.550781 7.472656 19.539062 7.261719 C 19.53125 7.183594 19.527344 7.105469 19.523438 7.027344 C 19.46875 6.214844 19.269531 5.585938 18.671875 5.007812 C 18.226562 4.65625 17.726562 4.539062 17.179688 4.5 C 17.132812 4.496094 17.085938 4.492188 17.035156 4.488281 C 16.933594 4.476562 16.835938 4.46875 16.734375 4.460938 C 16.585938 4.449219 16.433594 4.4375 16.285156 4.425781 C 13.398438 4.1875 10.5 4.226562 7.613281 4.429688 Z M 7.613281 4.429688 "/>
<path style=" stroke:none;fill-rule:nonzero;fill:rgb(100%,100%,100%);fill-opacity:1;" d="M 12.101562 7.53125 C 12.160156 7.53125 12.21875 7.53125 12.28125 7.53125 C 12.730469 7.535156 13.125 7.582031 13.546875 7.734375 C 13.613281 7.757812 13.613281 7.757812 13.679688 7.78125 C 13.894531 7.867188 14.03125 7.953125 14.15625 8.15625 C 14.242188 8.410156 14.238281 8.671875 14.148438 8.921875 C 13.992188 9.148438 13.816406 9.269531 13.546875 9.328125 C 13.320312 9.328125 13.117188 9.28125 12.90625 9.210938 C 12.117188 8.964844 11.328125 9.136719 10.609375 9.503906 C 9.949219 9.882812 9.523438 10.484375 9.28125 11.203125 C 9.269531 11.238281 9.257812 11.269531 9.246094 11.304688 C 9.035156 12.050781 9.210938 12.863281 9.566406 13.535156 C 9.925781 14.144531 10.441406 14.566406 11.109375 14.8125 C 11.144531 14.828125 11.183594 14.84375 11.222656 14.859375 C 11.917969 15.09375 12.761719 15.007812 13.414062 14.695312 C 14.171875 14.28125 14.707031 13.652344 14.953125 12.820312 C 15.101562 12.203125 15.0625 11.691406 14.886719 11.089844 C 14.8125 10.808594 14.800781 10.585938 14.90625 10.3125 C 15.011719 10.136719 15.136719 10.011719 15.328125 9.9375 C 15.585938 9.90625 15.816406 9.902344 16.054688 10.015625 C 16.554688 10.488281 16.636719 11.269531 16.652344 11.929688 C 16.667969 13.109375 16.289062 14.234375 15.464844 15.09375 C 15.40625 15.15625 15.34375 15.21875 15.28125 15.28125 C 15.253906 15.3125 15.226562 15.34375 15.199219 15.375 C 14.574219 16.0625 13.488281 16.507812 12.574219 16.554688 C 11.6875 16.582031 10.933594 16.515625 10.125 16.125 C 10.082031 16.105469 10.042969 16.085938 10 16.066406 C 8.964844 15.542969 8.207031 14.625 7.824219 13.539062 C 7.425781 12.3125 7.527344 11.058594 8.097656 9.90625 C 8.671875 8.835938 9.625 8.078125 10.773438 7.695312 C 11.214844 7.5625 11.636719 7.527344 12.101562 7.53125 Z M 12.101562 7.53125 "/>
<path style=" stroke:none;fill-rule:nonzero;fill:rgb(100%,100%,100%);fill-opacity:1;" d="M 17.53125 6 C 17.761719 6.105469 17.894531 6.238281 18 6.46875 C 18.035156 6.730469 18.035156 6.953125 17.921875 7.195312 C 17.710938 7.421875 17.5625 7.511719 17.25 7.523438 C 16.9375 7.511719 16.789062 7.421875 16.578125 7.195312 C 16.464844 6.953125 16.464844 6.730469 16.5 6.46875 C 16.710938 6.015625 17.070312 5.9375 17.53125 6 Z M 17.53125 6 "/>
</g>
</svg>
