<?xml version="1.0" encoding="UTF-8"?>
<svg xmlns="http://www.w3.org/2000/svg" xmlns:xlink="http://www.w3.org/1999/xlink" width="25px" height="25px" viewBox="0 0 25 25" version="1.1">
<g id="surface1">
<path style=" stroke:none;fill-rule:nonzero;fill:rgb(100%,100%,100%);fill-opacity:1;" d="M 6.734375 -0.0195312 C 6.902344 -0.0195312 7.074219 -0.0195312 7.242188 -0.0195312 C 7.574219 -0.0234375 7.910156 -0.0234375 8.242188 -0.0195312 C 8.511719 -0.0195312 8.78125 -0.0195312 9.050781 -0.0234375 C 9.089844 -0.0234375 9.128906 -0.0234375 9.167969 -0.0234375 C 9.246094 -0.0234375 9.324219 -0.0234375 9.402344 -0.0234375 C 10.136719 -0.0234375 10.871094 -0.0234375 11.609375 -0.0234375 C 12.277344 -0.0195312 12.949219 -0.0234375 13.617188 -0.0234375 C 14.308594 -0.0234375 14.996094 -0.0234375 15.6875 -0.0234375 C 16.074219 -0.0234375 16.460938 -0.0234375 16.847656 -0.0234375 C 17.175781 -0.0273438 17.503906 -0.0273438 17.835938 -0.0234375 C 18.003906 -0.0234375 18.167969 -0.0234375 18.335938 -0.0234375 C 20.242188 -0.03125 21.867188 0.488281 23.253906 1.839844 C 24.359375 2.960938 25.019531 4.492188 25.011719 6.066406 C 25.011719 6.125 25.011719 6.179688 25.015625 6.238281 C 25.015625 6.398438 25.015625 6.554688 25.015625 6.710938 C 25.015625 6.882812 25.015625 7.050781 25.015625 7.222656 C 25.015625 7.554688 25.015625 7.886719 25.015625 8.21875 C 25.015625 8.492188 25.015625 8.761719 25.015625 9.03125 C 25.019531 9.800781 25.019531 10.570312 25.019531 11.34375 C 25.019531 11.402344 25.019531 11.402344 25.019531 11.46875 C 25.019531 11.507812 25.019531 11.550781 25.019531 11.59375 C 25.019531 12.265625 25.019531 12.9375 25.019531 13.605469 C 25.023438 14.296875 25.023438 14.988281 25.023438 15.679688 C 25.023438 16.066406 25.023438 16.453125 25.023438 16.839844 C 25.023438 17.171875 25.023438 17.5 25.023438 17.832031 C 25.023438 18 25.023438 18.167969 25.023438 18.335938 C 25.03125 20.253906 24.519531 21.78125 23.191406 23.191406 C 23.167969 23.222656 23.140625 23.25 23.117188 23.28125 C 22.492188 23.953125 21.605469 24.433594 20.742188 24.726562 C 20.695312 24.746094 20.695312 24.746094 20.648438 24.761719 C 20.535156 24.796875 20.425781 24.824219 20.3125 24.851562 C 20.242188 24.871094 20.242188 24.871094 20.167969 24.890625 C 19.535156 25.03125 18.910156 25.019531 18.265625 25.019531 C 18.097656 25.019531 17.925781 25.019531 17.757812 25.019531 C 17.425781 25.023438 17.089844 25.023438 16.757812 25.019531 C 16.488281 25.019531 16.21875 25.019531 15.949219 25.023438 C 15.910156 25.023438 15.871094 25.023438 15.832031 25.023438 C 15.753906 25.023438 15.675781 25.023438 15.597656 25.023438 C 14.863281 25.023438 14.128906 25.023438 13.390625 25.023438 C 12.722656 25.019531 12.050781 25.023438 11.382812 25.023438 C 10.691406 25.023438 10.003906 25.023438 9.3125 25.023438 C 8.925781 25.023438 8.539062 25.023438 8.152344 25.023438 C 7.824219 25.027344 7.496094 25.027344 7.164062 25.023438 C 6.996094 25.023438 6.832031 25.023438 6.664062 25.023438 C 4.746094 25.03125 3.21875 24.519531 1.804688 23.191406 C 1.761719 23.15625 1.761719 23.15625 1.71875 23.117188 C 1.046875 22.492188 0.566406 21.605469 0.273438 20.742188 C 0.261719 20.710938 0.25 20.679688 0.238281 20.648438 C 0.203125 20.535156 0.175781 20.425781 0.144531 20.3125 C 0.128906 20.242188 0.128906 20.242188 0.109375 20.167969 C -0.03125 19.535156 -0.0195312 18.910156 -0.0195312 18.265625 C -0.0195312 18.097656 -0.0195312 17.925781 -0.0195312 17.757812 C -0.0234375 17.425781 -0.0234375 17.089844 -0.0195312 16.757812 C -0.0195312 16.488281 -0.0195312 16.21875 -0.0234375 15.949219 C -0.0234375 15.910156 -0.0234375 15.871094 -0.0234375 15.832031 C -0.0234375 15.753906 -0.0234375 15.675781 -0.0234375 15.597656 C -0.0234375 14.863281 -0.0234375 14.128906 -0.0234375 13.390625 C -0.0195312 12.722656 -0.0234375 12.050781 -0.0234375 11.382812 C -0.0234375 10.691406 -0.0234375 10.003906 -0.0234375 9.3125 C -0.0234375 8.925781 -0.0234375 8.539062 -0.0234375 8.152344 C -0.0273438 7.824219 -0.0273438 7.496094 -0.0234375 7.164062 C -0.0234375 6.996094 -0.0234375 6.832031 -0.0234375 6.664062 C -0.03125 4.789062 0.453125 3.238281 1.757812 1.855469 C 1.792969 1.820312 1.824219 1.78125 1.859375 1.746094 C 2.503906 1.0625 3.375 0.570312 4.257812 0.273438 C 4.289062 0.261719 4.320312 0.25 4.351562 0.238281 C 4.464844 0.203125 4.574219 0.175781 4.6875 0.144531 C 4.734375 0.132812 4.785156 0.121094 4.832031 0.109375 C 5.464844 -0.03125 6.089844 -0.0195312 6.734375 -0.0195312 Z M 3.464844 3.171875 C 3.429688 3.207031 3.390625 3.238281 3.355469 3.273438 C 2.613281 3.964844 2.132812 5.019531 2.09375 6.03125 C 2.09375 6.167969 2.09375 6.308594 2.09375 6.449219 C 2.09375 6.503906 2.09375 6.558594 2.09375 6.613281 C 2.09375 6.792969 2.09375 6.972656 2.089844 7.148438 C 2.089844 7.277344 2.089844 7.40625 2.089844 7.535156 C 2.089844 7.886719 2.089844 8.234375 2.089844 8.585938 C 2.089844 8.800781 2.089844 9.019531 2.089844 9.238281 C 2.089844 9.84375 2.089844 10.449219 2.089844 11.054688 C 2.089844 11.09375 2.089844 11.132812 2.089844 11.175781 C 2.089844 11.210938 2.089844 11.25 2.089844 11.292969 C 2.089844 11.371094 2.089844 11.449219 2.085938 11.527344 C 2.085938 11.566406 2.085938 11.605469 2.085938 11.644531 C 2.085938 12.277344 2.085938 12.90625 2.085938 13.539062 C 2.085938 14.1875 2.082031 14.839844 2.082031 15.488281 C 2.082031 15.851562 2.082031 16.214844 2.082031 16.578125 C 2.082031 16.890625 2.082031 17.199219 2.082031 17.511719 C 2.082031 17.667969 2.082031 17.824219 2.082031 17.984375 C 2.078125 19.320312 2.257812 20.492188 3.171875 21.53125 C 3.222656 21.589844 3.222656 21.589844 3.273438 21.644531 C 3.964844 22.386719 5.019531 22.867188 6.03125 22.90625 C 6.167969 22.90625 6.308594 22.90625 6.449219 22.90625 C 6.503906 22.90625 6.558594 22.90625 6.613281 22.90625 C 6.792969 22.90625 6.972656 22.90625 7.148438 22.910156 C 7.277344 22.910156 7.40625 22.910156 7.535156 22.910156 C 7.886719 22.910156 8.234375 22.910156 8.585938 22.910156 C 8.800781 22.910156 9.019531 22.910156 9.238281 22.910156 C 9.84375 22.910156 10.449219 22.910156 11.054688 22.910156 C 11.113281 22.910156 11.113281 22.910156 11.175781 22.910156 C 11.230469 22.910156 11.230469 22.910156 11.292969 22.910156 C 11.371094 22.910156 11.449219 22.910156 11.527344 22.914062 C 11.585938 22.914062 11.585938 22.914062 11.644531 22.914062 C 12.277344 22.914062 12.90625 22.914062 13.539062 22.914062 C 14.1875 22.914062 14.839844 22.917969 15.488281 22.917969 C 15.851562 22.917969 16.214844 22.917969 16.578125 22.917969 C 16.890625 22.917969 17.199219 22.917969 17.511719 22.917969 C 17.667969 22.917969 17.824219 22.917969 17.984375 22.917969 C 19.320312 22.921875 20.492188 22.742188 21.53125 21.824219 C 21.570312 21.792969 21.609375 21.761719 21.644531 21.726562 C 22.382812 21.039062 22.867188 19.980469 22.90625 18.976562 C 22.90625 18.835938 22.90625 18.695312 22.90625 18.554688 C 22.90625 18.5 22.90625 18.449219 22.90625 18.394531 C 22.90625 18.214844 22.90625 18.035156 22.910156 17.855469 C 22.910156 17.726562 22.910156 17.597656 22.910156 17.46875 C 22.910156 17.121094 22.910156 16.769531 22.910156 16.421875 C 22.910156 16.203125 22.910156 15.984375 22.910156 15.765625 C 22.910156 15.160156 22.910156 14.554688 22.910156 13.949219 C 22.910156 13.910156 22.910156 13.871094 22.910156 13.828125 C 22.910156 13.792969 22.910156 13.753906 22.910156 13.710938 C 22.910156 13.632812 22.910156 13.554688 22.914062 13.476562 C 22.914062 13.4375 22.914062 13.398438 22.914062 13.359375 C 22.914062 12.726562 22.914062 12.09375 22.914062 11.464844 C 22.914062 10.8125 22.917969 10.164062 22.917969 9.515625 C 22.917969 9.148438 22.917969 8.785156 22.917969 8.421875 C 22.917969 8.113281 22.917969 7.800781 22.917969 7.492188 C 22.917969 7.332031 22.917969 7.175781 22.917969 7.015625 C 22.921875 5.679688 22.742188 4.507812 21.824219 3.464844 C 21.792969 3.429688 21.761719 3.390625 21.726562 3.355469 C 21.035156 2.613281 19.980469 2.132812 18.96875 2.09375 C 18.832031 2.09375 18.691406 2.09375 18.550781 2.09375 C 18.496094 2.09375 18.441406 2.09375 18.386719 2.09375 C 18.207031 2.09375 18.027344 2.09375 17.851562 2.089844 C 17.722656 2.089844 17.59375 2.089844 17.464844 2.089844 C 17.113281 2.089844 16.765625 2.089844 16.414062 2.089844 C 16.199219 2.089844 15.980469 2.089844 15.761719 2.089844 C 15.15625 2.089844 14.550781 2.089844 13.945312 2.089844 C 13.886719 2.089844 13.886719 2.089844 13.824219 2.089844 C 13.789062 2.089844 13.75 2.089844 13.707031 2.089844 C 13.628906 2.089844 13.550781 2.089844 13.472656 2.085938 C 13.414062 2.085938 13.414062 2.085938 13.355469 2.085938 C 12.722656 2.085938 12.09375 2.085938 11.460938 2.085938 C 10.8125 2.085938 10.160156 2.082031 9.511719 2.082031 C 9.148438 2.082031 8.785156 2.082031 8.421875 2.082031 C 8.109375 2.082031 7.800781 2.082031 7.488281 2.082031 C 7.332031 2.082031 7.175781 2.082031 7.015625 2.082031 C 5.679688 2.078125 4.507812 2.257812 3.464844 3.171875 Z M 3.464844 3.171875 "/>
<path style=" stroke:none;fill-rule:nonzero;fill:rgb(100%,100%,100%);fill-opacity:1;" d="M 16.4375 7.574219 C 17.515625 8.492188 18.21875 9.578125 18.601562 10.9375 C 18.621094 10.996094 18.636719 11.050781 18.652344 11.113281 C 19.023438 12.679688 18.703125 14.441406 17.867188 15.804688 C 17.628906 16.183594 17.351562 16.523438 17.039062 16.84375 C 17 16.890625 16.957031 16.933594 16.917969 16.980469 C 16.597656 17.3125 16.257812 17.578125 15.867188 17.820312 C 15.816406 17.855469 15.765625 17.890625 15.710938 17.925781 C 14.347656 18.75 12.617188 18.996094 11.066406 18.644531 C 10.683594 18.546875 10.320312 18.417969 9.960938 18.261719 C 9.929688 18.246094 9.898438 18.234375 9.863281 18.21875 C 8.394531 17.570312 7.238281 16.320312 6.648438 14.835938 C 6.550781 14.582031 6.46875 14.324219 6.394531 14.0625 C 6.378906 14.003906 6.363281 13.949219 6.347656 13.886719 C 5.976562 12.332031 6.289062 10.574219 7.113281 9.214844 C 8.003906 7.792969 9.335938 6.851562 10.9375 6.398438 C 10.996094 6.378906 11.050781 6.363281 11.113281 6.347656 C 12.925781 5.917969 15 6.394531 16.4375 7.574219 Z M 9.714844 9.421875 C 9.679688 9.457031 9.640625 9.488281 9.605469 9.523438 C 8.90625 10.171875 8.390625 11.203125 8.347656 12.15625 C 8.347656 12.207031 8.34375 12.257812 8.34375 12.304688 C 8.3125 13.414062 8.691406 14.449219 9.421875 15.28125 C 9.472656 15.339844 9.472656 15.339844 9.523438 15.394531 C 10.171875 16.09375 11.203125 16.609375 12.15625 16.648438 C 12.207031 16.652344 12.257812 16.65625 12.304688 16.65625 C 13.414062 16.6875 14.449219 16.308594 15.28125 15.578125 C 15.320312 15.542969 15.359375 15.511719 15.394531 15.476562 C 16.09375 14.828125 16.609375 13.796875 16.648438 12.84375 C 16.652344 12.792969 16.65625 12.742188 16.65625 12.695312 C 16.6875 11.585938 16.308594 10.550781 15.578125 9.71875 C 15.542969 9.679688 15.511719 9.640625 15.476562 9.605469 C 14.828125 8.90625 13.796875 8.390625 12.84375 8.351562 C 12.792969 8.347656 12.742188 8.34375 12.695312 8.34375 C 11.585938 8.3125 10.550781 8.691406 9.714844 9.421875 Z M 9.714844 9.421875 "/>
<path style=" stroke:none;fill-rule:nonzero;fill:rgb(100%,100%,100%);fill-opacity:1;" d="M 20.234375 4.429688 C 20.554688 4.6875 20.722656 4.984375 20.851562 5.371094 C 20.886719 5.949219 20.839844 6.378906 20.464844 6.832031 C 20.132812 7.164062 19.730469 7.320312 19.269531 7.339844 C 18.78125 7.324219 18.421875 7.136719 18.078125 6.800781 C 17.773438 6.464844 17.65625 6.089844 17.664062 5.636719 C 17.703125 5.191406 17.890625 4.785156 18.230469 4.488281 C 18.835938 4.042969 19.609375 3.992188 20.234375 4.429688 Z M 20.234375 4.429688 "/>
</g>
</svg>
