<?xml version="1.0" encoding="UTF-8"?>
<svg xmlns="http://www.w3.org/2000/svg" xmlns:xlink="http://www.w3.org/1999/xlink" width="24px" height="24px" viewBox="0 0 24 24" version="1.1">
<g id="surface1">
<path style=" stroke:none;fill-rule:nonzero;fill:rgb(100%,100%,100%);fill-opacity:1;" d="M 20.4375 9.375 C 21.355469 10.253906 21.769531 11.429688 21.804688 12.679688 C 21.808594 12.910156 21.808594 13.136719 21.804688 13.363281 C 21.804688 13.449219 21.804688 13.535156 21.804688 13.625 C 21.804688 13.855469 21.804688 14.085938 21.804688 14.320312 C 21.800781 14.515625 21.800781 14.707031 21.800781 14.902344 C 21.800781 15.363281 21.796875 15.820312 21.792969 16.277344 C 21.792969 16.75 21.789062 17.222656 21.789062 17.695312 C 21.789062 18.101562 21.785156 18.507812 21.785156 18.917969 C 21.78125 19.160156 21.78125 19.402344 21.78125 19.644531 C 21.78125 19.871094 21.78125 20.097656 21.777344 20.328125 C 21.777344 20.410156 21.777344 20.492188 21.777344 20.578125 C 21.777344 20.691406 21.777344 20.804688 21.773438 20.917969 C 21.773438 20.949219 21.777344 20.984375 21.777344 21.019531 C 21.769531 21.25 21.707031 21.382812 21.5625 21.5625 C 21.332031 21.761719 21.148438 21.777344 20.859375 21.773438 C 20.796875 21.773438 20.796875 21.773438 20.730469 21.773438 C 20.59375 21.777344 20.457031 21.777344 20.320312 21.773438 C 20.226562 21.773438 20.128906 21.773438 20.035156 21.777344 C 19.832031 21.777344 19.632812 21.773438 19.433594 21.773438 C 19.175781 21.773438 18.921875 21.773438 18.664062 21.773438 C 18.464844 21.777344 18.269531 21.777344 18.070312 21.773438 C 17.976562 21.773438 17.882812 21.773438 17.789062 21.777344 C 17.65625 21.777344 17.523438 21.773438 17.390625 21.773438 C 17.332031 21.773438 17.332031 21.773438 17.273438 21.777344 C 16.960938 21.769531 16.800781 21.675781 16.578125 21.453125 C 16.429688 21.207031 16.472656 20.890625 16.476562 20.613281 C 16.476562 20.542969 16.476562 20.476562 16.476562 20.40625 C 16.472656 20.257812 16.472656 20.113281 16.472656 19.964844 C 16.476562 19.730469 16.472656 19.5 16.472656 19.265625 C 16.472656 18.898438 16.472656 18.527344 16.472656 18.160156 C 16.46875 17.5 16.46875 16.839844 16.46875 16.179688 C 16.464844 15.949219 16.464844 15.714844 16.464844 15.484375 C 16.464844 15.339844 16.464844 15.195312 16.464844 15.050781 C 16.464844 14.984375 16.464844 14.917969 16.464844 14.851562 C 16.46875 14.269531 16.453125 13.738281 16.078125 13.265625 C 15.765625 12.957031 15.441406 12.835938 15.007812 12.824219 C 14.59375 12.832031 14.25 12.945312 13.945312 13.230469 C 13.519531 13.71875 13.53125 14.332031 13.535156 14.949219 C 13.535156 15.019531 13.535156 15.085938 13.535156 15.15625 C 13.535156 15.304688 13.535156 15.449219 13.535156 15.597656 C 13.535156 15.832031 13.535156 16.0625 13.53125 16.296875 C 13.53125 16.960938 13.53125 17.621094 13.527344 18.285156 C 13.527344 18.652344 13.527344 19.015625 13.527344 19.382812 C 13.527344 19.617188 13.523438 19.847656 13.527344 20.078125 C 13.527344 20.222656 13.523438 20.367188 13.523438 20.511719 C 13.523438 20.578125 13.523438 20.644531 13.523438 20.710938 C 13.527344 21.277344 13.527344 21.277344 13.421875 21.453125 C 13.199219 21.675781 13.039062 21.769531 12.726562 21.777344 C 12.667969 21.773438 12.667969 21.773438 12.609375 21.773438 C 12.546875 21.773438 12.546875 21.773438 12.480469 21.773438 C 12.34375 21.777344 12.207031 21.777344 12.070312 21.773438 C 11.976562 21.773438 11.878906 21.773438 11.785156 21.777344 C 11.582031 21.777344 11.382812 21.773438 11.183594 21.773438 C 10.925781 21.773438 10.671875 21.773438 10.414062 21.773438 C 10.214844 21.777344 10.019531 21.777344 9.820312 21.773438 C 9.726562 21.773438 9.632812 21.773438 9.539062 21.777344 C 9.40625 21.777344 9.273438 21.773438 9.140625 21.773438 C 9.101562 21.773438 9.0625 21.773438 9.023438 21.777344 C 8.777344 21.773438 8.632812 21.730469 8.4375 21.5625 C 8.21875 21.308594 8.222656 21.09375 8.226562 20.773438 C 8.226562 20.695312 8.226562 20.695312 8.226562 20.617188 C 8.222656 20.445312 8.226562 20.273438 8.226562 20.101562 C 8.226562 19.976562 8.226562 19.855469 8.226562 19.730469 C 8.222656 19.429688 8.222656 19.128906 8.226562 18.828125 C 8.226562 18.585938 8.226562 18.339844 8.226562 18.097656 C 8.226562 18.0625 8.226562 18.027344 8.226562 17.992188 C 8.226562 17.921875 8.226562 17.851562 8.226562 17.78125 C 8.222656 17.117188 8.226562 16.457031 8.226562 15.796875 C 8.226562 15.226562 8.226562 14.660156 8.226562 14.09375 C 8.222656 13.433594 8.222656 12.773438 8.226562 12.113281 C 8.226562 12.042969 8.226562 11.972656 8.226562 11.902344 C 8.226562 11.867188 8.226562 11.832031 8.226562 11.796875 C 8.226562 11.554688 8.226562 11.308594 8.222656 11.066406 C 8.222656 10.738281 8.222656 10.410156 8.226562 10.082031 C 8.226562 9.960938 8.226562 9.839844 8.226562 9.71875 C 8.226562 9.554688 8.226562 9.390625 8.226562 9.226562 C 8.226562 9.179688 8.226562 9.132812 8.226562 9.082031 C 8.226562 8.8125 8.253906 8.648438 8.4375 8.4375 C 8.667969 8.238281 8.851562 8.222656 9.140625 8.226562 C 9.203125 8.226562 9.203125 8.226562 9.269531 8.226562 C 9.40625 8.222656 9.542969 8.222656 9.679688 8.226562 C 9.773438 8.226562 9.871094 8.226562 9.964844 8.222656 C 10.167969 8.222656 10.367188 8.226562 10.566406 8.226562 C 10.824219 8.226562 11.078125 8.226562 11.335938 8.226562 C 11.535156 8.222656 11.730469 8.222656 11.929688 8.226562 C 12.023438 8.226562 12.117188 8.226562 12.210938 8.222656 C 12.34375 8.222656 12.476562 8.226562 12.609375 8.226562 C 12.648438 8.226562 12.6875 8.226562 12.726562 8.222656 C 12.972656 8.226562 13.117188 8.273438 13.3125 8.4375 C 13.5 8.679688 13.5 8.679688 13.5 8.859375 C 13.554688 8.835938 13.609375 8.808594 13.667969 8.785156 C 15.746094 7.871094 18.65625 7.796875 20.4375 9.375 Z M 9.75 9.75 C 9.75 13.214844 9.75 16.679688 9.75 20.25 C 10.492188 20.25 11.234375 20.25 12 20.25 C 12 20.054688 12 19.859375 12 19.65625 C 12.003906 19.007812 12.003906 18.363281 12.007812 17.714844 C 12.011719 17.320312 12.011719 16.929688 12.011719 16.539062 C 12.011719 16.195312 12.015625 15.851562 12.015625 15.511719 C 12.019531 15.328125 12.019531 15.148438 12.019531 14.96875 C 12.019531 14.796875 12.019531 14.625 12.019531 14.453125 C 12.019531 14.363281 12.019531 14.269531 12.019531 14.179688 C 12.03125 13.34375 12.359375 12.644531 12.933594 12.046875 C 13.597656 11.429688 14.398438 11.269531 15.269531 11.28125 C 16.074219 11.308594 16.753906 11.699219 17.296875 12.28125 C 17.78125 12.917969 17.964844 13.546875 17.96875 14.332031 C 17.96875 14.398438 17.96875 14.460938 17.96875 14.527344 C 17.972656 14.703125 17.972656 14.875 17.972656 15.050781 C 17.972656 15.234375 17.972656 15.417969 17.976562 15.597656 C 17.976562 15.945312 17.980469 16.292969 17.980469 16.636719 C 17.984375 17.03125 17.984375 17.425781 17.988281 17.820312 C 17.992188 18.628906 17.996094 19.441406 18 20.25 C 18.742188 20.25 19.484375 20.25 20.25 20.25 C 20.253906 19.253906 20.253906 18.253906 20.253906 17.257812 C 20.253906 16.792969 20.257812 16.328125 20.257812 15.867188 C 20.257812 15.460938 20.257812 15.058594 20.257812 14.652344 C 20.257812 14.441406 20.257812 14.226562 20.261719 14.011719 C 20.261719 13.8125 20.261719 13.609375 20.261719 13.40625 C 20.261719 13.332031 20.261719 13.261719 20.261719 13.1875 C 20.265625 12.1875 20.101562 11.296875 19.40625 10.539062 C 18.574219 9.761719 17.523438 9.726562 16.453125 9.75 C 16.414062 9.75 16.375 9.75 16.332031 9.753906 C 15.175781 9.785156 14.308594 10.082031 13.453125 10.875 C 13.15625 11.140625 13.011719 11.21875 12.609375 11.214844 C 12.421875 11.199219 12.324219 11.144531 12.1875 11.015625 C 12.046875 10.78125 12.046875 10.78125 12 9.75 C 11.257812 9.75 10.515625 9.75 9.75 9.75 Z M 9.75 9.75 "/>
<path style=" stroke:none;fill-rule:nonzero;fill:rgb(100%,100%,100%);fill-opacity:1;" d="M 3.140625 8.226562 C 3.203125 8.226562 3.203125 8.226562 3.269531 8.226562 C 3.40625 8.222656 3.542969 8.222656 3.679688 8.226562 C 3.773438 8.226562 3.871094 8.226562 3.964844 8.222656 C 4.167969 8.222656 4.367188 8.226562 4.566406 8.226562 C 4.824219 8.226562 5.078125 8.226562 5.335938 8.226562 C 5.535156 8.222656 5.730469 8.222656 5.929688 8.226562 C 6.023438 8.226562 6.117188 8.226562 6.210938 8.222656 C 6.34375 8.222656 6.476562 8.226562 6.609375 8.226562 C 6.648438 8.226562 6.6875 8.226562 6.726562 8.222656 C 6.972656 8.226562 7.117188 8.269531 7.3125 8.4375 C 7.53125 8.691406 7.527344 8.90625 7.523438 9.226562 C 7.523438 9.277344 7.523438 9.332031 7.523438 9.382812 C 7.527344 9.554688 7.523438 9.726562 7.523438 9.898438 C 7.523438 10.023438 7.523438 10.144531 7.523438 10.269531 C 7.527344 10.570312 7.527344 10.871094 7.523438 11.171875 C 7.523438 11.414062 7.523438 11.660156 7.523438 11.902344 C 7.523438 11.9375 7.523438 11.972656 7.523438 12.007812 C 7.523438 12.078125 7.523438 12.148438 7.523438 12.21875 C 7.527344 12.882812 7.523438 13.542969 7.523438 14.203125 C 7.523438 14.773438 7.523438 15.339844 7.523438 15.90625 C 7.527344 16.566406 7.527344 17.226562 7.523438 17.886719 C 7.523438 17.957031 7.523438 18.027344 7.523438 18.097656 C 7.523438 18.132812 7.523438 18.167969 7.523438 18.203125 C 7.523438 18.445312 7.523438 18.691406 7.527344 18.933594 C 7.527344 19.261719 7.527344 19.589844 7.523438 19.917969 C 7.523438 20.039062 7.523438 20.160156 7.523438 20.28125 C 7.523438 20.445312 7.523438 20.609375 7.523438 20.773438 C 7.523438 20.820312 7.523438 20.867188 7.523438 20.917969 C 7.523438 21.1875 7.496094 21.351562 7.3125 21.5625 C 7.082031 21.761719 6.898438 21.777344 6.609375 21.773438 C 6.546875 21.773438 6.546875 21.773438 6.480469 21.773438 C 6.34375 21.777344 6.207031 21.777344 6.070312 21.773438 C 5.976562 21.773438 5.878906 21.773438 5.785156 21.777344 C 5.582031 21.777344 5.382812 21.773438 5.183594 21.773438 C 4.925781 21.773438 4.671875 21.773438 4.414062 21.773438 C 4.214844 21.777344 4.019531 21.777344 3.820312 21.773438 C 3.726562 21.773438 3.632812 21.773438 3.539062 21.777344 C 3.40625 21.777344 3.273438 21.773438 3.140625 21.773438 C 3.101562 21.773438 3.0625 21.773438 3.023438 21.777344 C 2.777344 21.773438 2.632812 21.730469 2.4375 21.5625 C 2.257812 21.339844 2.222656 21.164062 2.226562 20.886719 C 2.226562 20.847656 2.226562 20.808594 2.226562 20.769531 C 2.222656 20.636719 2.226562 20.507812 2.226562 20.375 C 2.226562 20.28125 2.226562 20.1875 2.226562 20.09375 C 2.222656 19.839844 2.222656 19.585938 2.226562 19.332031 C 2.226562 19.066406 2.226562 18.796875 2.222656 18.53125 C 2.222656 18.085938 2.226562 17.636719 2.226562 17.191406 C 2.226562 16.671875 2.226562 16.15625 2.226562 15.636719 C 2.222656 15.195312 2.222656 14.75 2.226562 14.304688 C 2.226562 14.042969 2.226562 13.777344 2.222656 13.511719 C 2.222656 13.261719 2.222656 13.011719 2.226562 12.761719 C 2.226562 12.671875 2.226562 12.578125 2.226562 12.488281 C 2.226562 12.363281 2.226562 12.238281 2.226562 12.113281 C 2.226562 12.078125 2.226562 12.042969 2.226562 12.003906 C 2.226562 11.761719 2.285156 11.625 2.4375 11.4375 C 2.617188 11.265625 2.761719 11.234375 3 11.226562 C 3.238281 11.234375 3.382812 11.265625 3.5625 11.4375 C 3.730469 11.648438 3.777344 11.8125 3.773438 12.078125 C 3.773438 12.113281 3.773438 12.148438 3.773438 12.183594 C 3.773438 12.300781 3.773438 12.417969 3.769531 12.535156 C 3.769531 12.617188 3.769531 12.703125 3.769531 12.785156 C 3.769531 13.015625 3.769531 13.242188 3.769531 13.46875 C 3.769531 13.707031 3.769531 13.945312 3.765625 14.183594 C 3.765625 14.636719 3.765625 15.085938 3.761719 15.539062 C 3.761719 16.050781 3.761719 16.566406 3.757812 17.078125 C 3.757812 18.136719 3.753906 19.191406 3.75 20.25 C 4.492188 20.25 5.234375 20.25 6 20.25 C 6 16.785156 6 13.320312 6 9.75 C 4.917969 9.75 3.835938 9.75 2.71875 9.75 C 2.355469 9.507812 2.355469 9.507812 2.25 9.28125 C 2.214844 9.019531 2.214844 8.796875 2.328125 8.554688 C 2.585938 8.28125 2.78125 8.222656 3.140625 8.226562 Z M 3.140625 8.226562 "/>
<path style=" stroke:none;fill-rule:nonzero;fill:rgb(100%,100%,100%);fill-opacity:1;" d="M 6.234375 2.566406 C 6.347656 2.644531 6.457031 2.726562 6.5625 2.8125 C 6.601562 2.839844 6.640625 2.871094 6.679688 2.898438 C 7.125 3.277344 7.457031 3.878906 7.507812 4.464844 C 7.535156 5.273438 7.46875 5.910156 6.9375 6.5625 C 6.910156 6.601562 6.878906 6.640625 6.847656 6.679688 C 6.46875 7.125 5.847656 7.449219 5.265625 7.515625 C 5.136719 7.519531 5.007812 7.523438 4.882812 7.519531 C 4.835938 7.519531 4.789062 7.519531 4.742188 7.519531 C 4.398438 7.511719 4.109375 7.464844 3.796875 7.3125 C 3.75 7.289062 3.707031 7.269531 3.660156 7.246094 C 3.003906 6.910156 2.582031 6.40625 2.339844 5.710938 C 2.132812 5.050781 2.183594 4.277344 2.484375 3.65625 C 2.582031 3.488281 2.691406 3.335938 2.8125 3.1875 C 2.839844 3.148438 2.871094 3.109375 2.902344 3.070312 C 3.691406 2.140625 5.199219 1.957031 6.234375 2.566406 Z M 4 4.175781 C 3.792969 4.492188 3.761719 4.78125 3.796875 5.15625 C 3.894531 5.476562 4.101562 5.703125 4.386719 5.875 C 4.664062 6.003906 4.972656 6.003906 5.265625 5.921875 C 5.550781 5.796875 5.777344 5.558594 5.914062 5.277344 C 6.003906 4.992188 6.003906 4.660156 5.875 4.386719 C 5.71875 4.125 5.496094 3.890625 5.203125 3.796875 C 4.730469 3.730469 4.3125 3.789062 4 4.175781 Z M 4 4.175781 "/>
</g>
</svg>
