<?xml version="1.0" encoding="UTF-8"?>
<svg xmlns="http://www.w3.org/2000/svg" xmlns:xlink="http://www.w3.org/1999/xlink" width="66px" height="66px" viewBox="0 0 66 66" version="1.1">
<g id="surface1">
<path style=" stroke:none;fill-rule:nonzero;fill:rgb(99.607843%,99.607843%,99.607843%);fill-opacity:1;" d="M 14.046875 11.609375 C 14.3125 11.695312 14.453125 11.867188 14.609375 12.101562 C 14.609375 12.140625 14.609375 12.179688 14.609375 12.226562 C 14.664062 12.242188 14.726562 12.265625 14.789062 12.28125 C 14.851562 12.367188 14.914062 12.453125 14.96875 12.546875 C 15.085938 12.726562 15.21875 12.90625 15.34375 13.085938 C 15.382812 13.148438 15.382812 13.148438 15.421875 13.203125 C 15.570312 13.40625 15.570312 13.40625 15.734375 13.59375 C 15.835938 13.695312 15.921875 13.804688 16.007812 13.921875 C 16.046875 13.96875 16.078125 14.015625 16.117188 14.0625 C 16.148438 14.109375 16.1875 14.15625 16.21875 14.203125 C 16.429688 14.476562 16.648438 14.757812 16.867188 15.03125 C 17.054688 15.265625 17.234375 15.5 17.421875 15.742188 C 17.460938 15.789062 17.460938 15.789062 17.5 15.84375 C 17.578125 15.9375 17.648438 16.039062 17.71875 16.132812 C 17.757812 16.179688 17.796875 16.226562 17.835938 16.273438 C 17.90625 16.375 17.90625 16.375 17.90625 16.5 C 17.96875 16.523438 18.023438 16.539062 18.085938 16.5625 C 18.132812 16.640625 18.171875 16.726562 18.210938 16.804688 C 18.25 16.84375 18.28125 16.875 18.320312 16.914062 C 18.476562 17.070312 18.601562 17.242188 18.734375 17.414062 C 18.78125 17.476562 18.828125 17.546875 18.875 17.609375 C 18.9375 17.695312 18.9375 17.695312 19.007812 17.78125 C 19.039062 17.828125 19.078125 17.875 19.117188 17.921875 C 19.1875 18.03125 19.1875 18.03125 19.1875 18.148438 C 19.226562 18.164062 19.265625 18.179688 19.296875 18.195312 C 19.46875 18.296875 19.515625 18.40625 19.617188 18.578125 C 19.726562 18.726562 19.835938 18.867188 19.953125 19.007812 C 20.039062 19.117188 20.125 19.226562 20.210938 19.335938 C 20.273438 19.414062 20.335938 19.492188 20.398438 19.578125 C 20.476562 19.679688 20.476562 19.679688 20.476562 19.796875 C 20.53125 19.820312 20.59375 19.84375 20.65625 19.859375 C 20.757812 19.992188 20.757812 19.992188 20.875 20.15625 C 21.101562 20.476562 21.335938 20.765625 21.585938 21.054688 C 21.6875 21.203125 21.710938 21.28125 21.757812 21.453125 C 21.8125 21.46875 21.875 21.492188 21.9375 21.507812 C 22.054688 21.65625 22.164062 21.796875 22.273438 21.945312 C 22.523438 22.289062 22.78125 22.632812 23.054688 22.96875 C 23.3125 23.289062 23.5625 23.609375 23.796875 23.945312 C 23.890625 24.078125 23.890625 24.078125 23.984375 24.164062 C 24.171875 24.351562 24.320312 24.570312 24.484375 24.78125 C 24.523438 24.828125 24.5625 24.882812 24.601562 24.929688 C 24.648438 25 24.648438 25 24.703125 25.070312 C 24.734375 25.109375 24.765625 25.148438 24.804688 25.195312 C 24.875 25.296875 24.875 25.296875 24.875 25.421875 C 24.914062 25.421875 24.953125 25.421875 24.992188 25.421875 C 25.054688 25.523438 25.117188 25.625 25.179688 25.726562 C 25.210938 25.757812 25.25 25.796875 25.28125 25.828125 C 25.484375 26.03125 25.648438 26.257812 25.820312 26.484375 C 25.875 26.554688 25.875 26.554688 25.921875 26.625 C 26.070312 26.8125 26.21875 27.007812 26.351562 27.210938 C 26.453125 27.367188 26.570312 27.492188 26.703125 27.625 C 26.796875 27.742188 26.890625 27.867188 26.984375 27.992188 C 27.03125 28.054688 27.078125 28.117188 27.125 28.179688 C 27.171875 28.234375 27.210938 28.296875 27.257812 28.351562 C 27.289062 28.398438 27.328125 28.445312 27.367188 28.492188 C 27.4375 28.601562 27.4375 28.601562 27.4375 28.726562 C 27.476562 28.734375 27.515625 28.75 27.546875 28.765625 C 27.71875 28.867188 27.765625 28.976562 27.867188 29.148438 C 27.9375 29.242188 28.015625 29.34375 28.085938 29.429688 C 28.148438 29.507812 28.148438 29.507812 28.21875 29.59375 C 28.265625 29.648438 28.3125 29.703125 28.351562 29.757812 C 28.40625 29.820312 28.453125 29.882812 28.507812 29.945312 C 28.757812 30.257812 28.757812 30.257812 29.023438 30.554688 C 29.023438 30.617188 29.023438 30.679688 29.023438 30.742188 C 29.070312 30.742188 29.109375 30.742188 29.148438 30.742188 C 29.265625 30.882812 29.375 31.023438 29.476562 31.171875 C 29.734375 31.515625 29.992188 31.859375 30.265625 32.195312 C 30.515625 32.507812 30.757812 32.820312 30.984375 33.148438 C 31.15625 33.375 31.335938 33.585938 31.515625 33.804688 C 31.71875 34.054688 31.90625 34.304688 32.09375 34.5625 C 32.203125 34.710938 32.203125 34.710938 32.328125 34.835938 C 32.328125 34.890625 32.328125 34.953125 32.328125 35.015625 C 32.359375 35.03125 32.398438 35.039062 32.429688 35.046875 C 32.640625 35.179688 32.75 35.367188 32.875 35.5625 C 33.015625 35.570312 33.015625 35.570312 33.179688 35.507812 C 33.289062 35.382812 33.382812 35.257812 33.46875 35.125 C 33.492188 35.085938 33.523438 35.054688 33.546875 35.015625 C 33.59375 35.015625 33.632812 35.015625 33.671875 35.015625 C 33.679688 34.984375 33.679688 34.945312 33.6875 34.914062 C 33.75 34.726562 33.851562 34.617188 33.984375 34.460938 C 34.171875 34.234375 34.359375 34.007812 34.53125 33.765625 C 34.734375 33.476562 34.953125 33.203125 35.179688 32.929688 C 35.367188 32.695312 35.546875 32.460938 35.71875 32.21875 C 35.921875 31.953125 36.140625 31.6875 36.351562 31.429688 C 36.492188 31.257812 36.625 31.085938 36.742188 30.898438 C 36.78125 30.84375 36.8125 30.789062 36.851562 30.742188 C 36.890625 30.742188 36.929688 30.742188 36.976562 30.742188 C 36.992188 30.6875 37.007812 30.640625 37.023438 30.59375 C 37.046875 30.539062 37.070312 30.484375 37.09375 30.4375 C 37.15625 30.414062 37.21875 30.390625 37.273438 30.375 C 37.320312 30.273438 37.359375 30.171875 37.398438 30.070312 C 37.5 29.914062 37.617188 29.773438 37.734375 29.632812 C 37.765625 29.59375 37.789062 29.554688 37.820312 29.515625 C 38.046875 29.234375 38.046875 29.234375 38.171875 29.117188 C 38.265625 29.023438 38.265625 29.023438 38.351562 28.859375 C 38.390625 28.796875 38.390625 28.796875 38.4375 28.726562 C 38.476562 28.726562 38.523438 28.726562 38.5625 28.726562 C 38.578125 28.679688 38.59375 28.632812 38.609375 28.59375 C 38.695312 28.390625 38.804688 28.257812 38.945312 28.09375 C 39.21875 27.765625 39.484375 27.429688 39.71875 27.070312 C 39.765625 27.070312 39.804688 27.070312 39.84375 27.070312 C 39.859375 27.03125 39.875 26.992188 39.882812 26.945312 C 39.992188 26.71875 40.132812 26.539062 40.289062 26.34375 C 40.320312 26.304688 40.351562 26.273438 40.382812 26.234375 C 40.523438 26.054688 40.664062 25.882812 40.8125 25.710938 C 40.945312 25.554688 40.945312 25.554688 41.007812 25.421875 C 41.046875 25.421875 41.085938 25.421875 41.125 25.421875 C 41.140625 25.375 41.15625 25.335938 41.171875 25.289062 C 41.257812 25.09375 41.367188 24.960938 41.515625 24.796875 C 41.8125 24.453125 42.085938 24.09375 42.359375 23.734375 C 42.53125 23.5 42.710938 23.273438 42.890625 23.046875 C 43.0625 22.835938 43.234375 22.617188 43.398438 22.390625 C 43.445312 22.335938 43.484375 22.28125 43.53125 22.226562 C 43.617188 22.109375 43.703125 21.992188 43.789062 21.875 C 43.851562 21.796875 43.851562 21.796875 43.914062 21.710938 C 43.953125 21.65625 43.984375 21.609375 44.023438 21.554688 C 44.070312 21.507812 44.070312 21.507812 44.125 21.453125 C 44.164062 21.453125 44.203125 21.453125 44.242188 21.453125 C 44.25 21.398438 44.25 21.398438 44.257812 21.34375 C 44.320312 21.15625 44.421875 21.046875 44.546875 20.898438 C 44.8125 20.585938 45.054688 20.265625 45.289062 19.9375 C 45.351562 19.867188 45.351562 19.867188 45.40625 19.796875 C 45.445312 19.796875 45.484375 19.796875 45.523438 19.796875 C 45.539062 19.757812 45.554688 19.71875 45.570312 19.671875 C 45.664062 19.453125 45.804688 19.28125 45.945312 19.09375 C 45.976562 19.0625 46 19.023438 46.03125 18.992188 C 46.140625 18.84375 46.257812 18.703125 46.390625 18.570312 C 46.515625 18.445312 46.59375 18.304688 46.6875 18.148438 C 46.765625 18.054688 46.835938 17.960938 46.914062 17.867188 C 47.140625 17.585938 47.351562 17.304688 47.5625 17.007812 C 47.648438 16.890625 47.742188 16.789062 47.851562 16.679688 C 47.945312 16.554688 48.046875 16.429688 48.140625 16.304688 C 48.1875 16.25 48.1875 16.25 48.226562 16.195312 C 48.304688 16.09375 48.382812 15.992188 48.460938 15.890625 C 48.515625 15.8125 48.515625 15.8125 48.578125 15.734375 C 48.703125 15.5625 48.828125 15.390625 48.953125 15.21875 C 48.992188 15.21875 49.03125 15.21875 49.070312 15.21875 C 49.09375 15.148438 49.09375 15.148438 49.117188 15.085938 C 49.203125 14.882812 49.320312 14.742188 49.460938 14.578125 C 49.6875 14.3125 49.6875 14.3125 49.890625 14.023438 C 49.976562 13.890625 50.0625 13.796875 50.171875 13.6875 C 50.195312 13.648438 50.210938 13.609375 50.234375 13.570312 C 50.273438 13.570312 50.3125 13.570312 50.351562 13.570312 C 50.375 13.5 50.375 13.5 50.398438 13.4375 C 50.492188 13.234375 50.601562 13.09375 50.742188 12.929688 C 50.96875 12.664062 50.96875 12.664062 51.164062 12.382812 C 51.289062 12.203125 51.421875 12.0625 51.578125 11.914062 C 51.625 11.859375 51.679688 11.796875 51.734375 11.742188 C 51.882812 11.609375 51.882812 11.609375 52.023438 11.617188 C 52.21875 11.679688 52.351562 11.765625 52.515625 11.882812 C 52.570312 11.921875 52.625 11.960938 52.679688 12 C 52.71875 12.03125 52.757812 12.0625 52.796875 12.101562 C 52.796875 12.140625 52.796875 12.179688 52.796875 12.226562 C 52.859375 12.25 52.859375 12.25 52.921875 12.273438 C 53.046875 12.34375 53.046875 12.34375 53.101562 12.523438 C 53.164062 12.554688 53.164062 12.554688 53.226562 12.585938 C 53.382812 12.664062 53.398438 12.742188 53.476562 12.898438 C 53.554688 12.9375 53.632812 12.976562 53.71875 13.015625 C 53.734375 13.078125 53.757812 13.140625 53.773438 13.203125 C 53.828125 13.226562 53.828125 13.226562 53.882812 13.257812 C 54.109375 13.367188 54.28125 13.539062 54.390625 13.765625 C 54.445312 13.882812 54.445312 13.882812 54.578125 13.914062 C 54.617188 13.921875 54.65625 13.929688 54.695312 13.9375 C 54.703125 13.992188 54.703125 13.992188 54.710938 14.046875 C 54.773438 14.21875 54.84375 14.226562 55 14.296875 C 55.039062 14.382812 55.078125 14.460938 55.125 14.546875 C 55.203125 14.585938 55.28125 14.625 55.367188 14.664062 C 55.390625 14.726562 55.40625 14.789062 55.429688 14.851562 C 55.507812 14.890625 55.59375 14.929688 55.671875 14.96875 C 55.765625 15.0625 55.765625 15.0625 55.851562 15.164062 C 55.882812 15.203125 55.914062 15.234375 55.945312 15.273438 C 55.992188 15.335938 55.992188 15.335938 56.039062 15.390625 C 56.09375 15.453125 56.09375 15.453125 56.140625 15.507812 C 56.585938 16.039062 56.585938 16.039062 56.585938 16.195312 C 56.632812 16.195312 56.671875 16.195312 56.710938 16.195312 C 56.765625 16.273438 56.820312 16.359375 56.875 16.4375 C 56.96875 16.585938 57.078125 16.71875 57.195312 16.851562 C 57.8125 17.617188 57.8125 17.617188 57.8125 17.84375 C 57.851562 17.84375 57.890625 17.84375 57.929688 17.84375 C 58.03125 17.992188 58.125 18.140625 58.21875 18.289062 C 58.273438 18.382812 58.328125 18.46875 58.382812 18.5625 C 58.414062 18.609375 58.4375 18.648438 58.46875 18.695312 C 58.5625 18.859375 58.664062 19.015625 58.765625 19.171875 C 59.359375 20.09375 59.828125 21.0625 60.289062 22.054688 C 60.414062 22.3125 60.539062 22.554688 60.679688 22.796875 C 60.71875 22.882812 60.757812 22.96875 60.789062 23.054688 C 60.875 23.28125 60.96875 23.507812 61.070312 23.726562 C 61.515625 24.78125 61.914062 25.882812 62.179688 27 C 62.21875 27.164062 62.265625 27.335938 62.304688 27.507812 C 62.703125 29.046875 62.992188 30.617188 63.125 32.203125 C 63.140625 32.28125 63.148438 32.359375 63.15625 32.4375 C 63.203125 32.851562 63.195312 33.265625 63.195312 33.679688 C 63.203125 33.765625 63.203125 33.859375 63.203125 33.945312 C 63.203125 34.140625 63.203125 34.328125 63.203125 34.515625 C 63.203125 34.703125 63.203125 34.890625 63.203125 35.085938 C 63.210938 36.992188 63.210938 36.992188 63.09375 37.796875 C 63.0625 38.03125 63.054688 38.257812 63.046875 38.492188 C 63.015625 38.992188 62.921875 39.476562 62.820312 39.96875 C 62.773438 40.21875 62.734375 40.46875 62.703125 40.71875 C 62.648438 41.101562 62.554688 41.460938 62.453125 41.835938 C 62.40625 42.015625 62.367188 42.1875 62.328125 42.375 C 62.289062 42.609375 62.21875 42.820312 62.140625 43.046875 C 62.085938 43.210938 62.046875 43.375 62.007812 43.546875 C 61.882812 44.0625 61.71875 44.546875 61.523438 45.046875 C 61.453125 45.226562 61.382812 45.414062 61.320312 45.601562 C 61.078125 46.28125 60.835938 46.953125 60.507812 47.59375 C 60.453125 47.703125 60.398438 47.8125 60.351562 47.929688 C 60.25 48.164062 60.140625 48.398438 60.023438 48.632812 C 60 48.671875 59.976562 48.710938 59.960938 48.757812 C 59.476562 49.710938 59.476562 49.710938 59.25 50.015625 C 59.070312 50.257812 58.945312 50.523438 58.820312 50.789062 C 58.726562 50.96875 58.617188 51.117188 58.484375 51.273438 C 58.421875 51.359375 58.359375 51.453125 58.296875 51.546875 C 58.25 51.617188 58.25 51.617188 58.203125 51.679688 C 58.148438 51.78125 58.085938 51.875 58.023438 51.976562 C 57.929688 52.132812 57.828125 52.28125 57.726562 52.429688 C 57.601562 52.601562 57.476562 52.78125 57.367188 52.960938 C 57.328125 53.007812 57.296875 53.054688 57.257812 53.101562 C 57.21875 53.101562 57.179688 53.101562 57.140625 53.101562 C 57.125 53.148438 57.109375 53.195312 57.09375 53.234375 C 57 53.445312 56.882812 53.585938 56.734375 53.757812 C 56.679688 53.820312 56.625 53.890625 56.570312 53.953125 C 56.539062 53.984375 56.515625 54.015625 56.484375 54.046875 C 56.328125 54.242188 56.171875 54.4375 56.023438 54.632812 C 55.929688 54.742188 55.835938 54.835938 55.734375 54.9375 C 55.539062 55.148438 55.351562 55.367188 55.179688 55.59375 C 55.070312 55.71875 54.96875 55.828125 54.851562 55.945312 C 54.742188 56.054688 54.625 56.171875 54.515625 56.28125 C 54.429688 56.375 54.34375 56.460938 54.25 56.546875 C 54.210938 56.59375 54.164062 56.640625 54.117188 56.6875 C 53.859375 56.953125 53.59375 57.1875 53.289062 57.40625 C 53.164062 57.507812 53.164062 57.507812 53.039062 57.640625 C 52.921875 57.75 52.921875 57.75 52.796875 57.75 C 52.78125 57.789062 52.773438 57.828125 52.757812 57.867188 C 52.65625 58.03125 52.609375 58.015625 52.429688 58.054688 C 52.414062 58.109375 52.414062 58.109375 52.390625 58.15625 C 52.273438 58.375 52.085938 58.492188 51.898438 58.640625 C 51.835938 58.6875 51.835938 58.6875 51.78125 58.734375 C 51.617188 58.859375 51.476562 58.960938 51.28125 59.039062 C 51.117188 59.109375 51.109375 59.179688 51.03125 59.335938 C 50.882812 59.445312 50.882812 59.445312 50.710938 59.546875 C 50.5 59.671875 50.304688 59.804688 50.109375 59.945312 C 49.929688 60.070312 49.929688 60.070312 49.804688 60.070312 C 49.804688 60.109375 49.804688 60.15625 49.804688 60.195312 C 49.71875 60.242188 49.625 60.296875 49.539062 60.34375 C 49.492188 60.375 49.4375 60.40625 49.390625 60.4375 C 49.257812 60.5 49.257812 60.5 49.132812 60.5 C 49.132812 60.539062 49.132812 60.578125 49.132812 60.625 C 49.085938 60.640625 49.039062 60.664062 48.992188 60.6875 C 48.796875 60.78125 48.625 60.898438 48.445312 61.015625 C 48.195312 61.171875 47.953125 61.320312 47.695312 61.453125 C 47.585938 61.515625 47.476562 61.578125 47.375 61.640625 C 46.539062 62.140625 45.640625 62.539062 44.742188 62.890625 C 44.59375 62.953125 44.445312 63.015625 44.296875 63.085938 C 43.695312 63.328125 43.085938 63.53125 42.46875 63.742188 C 42.398438 63.765625 42.398438 63.765625 42.328125 63.789062 C 42.070312 63.875 41.8125 63.960938 41.554688 64.046875 C 41.46875 64.070312 41.46875 64.070312 41.375 64.101562 C 41.320312 64.117188 41.265625 64.140625 41.210938 64.15625 C 41.164062 64.171875 41.125 64.179688 41.078125 64.195312 C 40.921875 64.234375 40.796875 64.242188 40.640625 64.226562 C 40.445312 63.9375 40.5 63.632812 40.5 63.289062 C 40.5 63.1875 40.5 63.1875 40.492188 63.085938 C 40.492188 62.429688 40.492188 62.429688 40.703125 62.148438 C 40.84375 62.039062 40.84375 62.039062 41 61.945312 C 41.046875 61.914062 41.101562 61.890625 41.15625 61.859375 C 41.3125 61.78125 41.445312 61.75 41.617188 61.726562 C 41.617188 61.679688 41.617188 61.640625 41.617188 61.601562 C 41.75 61.507812 41.75 61.507812 41.921875 61.398438 C 42.21875 61.21875 42.5 61.023438 42.78125 60.804688 C 42.835938 60.757812 42.898438 60.710938 42.960938 60.664062 C 43.851562 60.015625 43.851562 60.015625 44.625 59.234375 C 44.734375 59.09375 44.734375 59.09375 44.851562 59.03125 C 44.875 59 44.890625 58.960938 44.90625 58.929688 C 45 58.742188 45.140625 58.632812 45.28125 58.484375 C 45.40625 58.34375 45.53125 58.210938 45.648438 58.070312 C 45.679688 58.03125 45.710938 57.992188 45.75 57.953125 C 45.914062 57.757812 46.070312 57.554688 46.210938 57.328125 C 46.242188 57.265625 46.28125 57.203125 46.320312 57.140625 C 46.359375 57.140625 46.40625 57.140625 46.445312 57.140625 C 46.460938 57.09375 46.476562 57.054688 46.492188 57.007812 C 46.570312 56.828125 46.65625 56.679688 46.757812 56.523438 C 47.304688 55.679688 47.773438 54.804688 48.148438 53.875 C 48.210938 53.734375 48.273438 53.585938 48.34375 53.445312 C 48.859375 52.296875 49.109375 50.96875 49.3125 49.726562 C 49.328125 49.609375 49.328125 49.609375 49.34375 49.492188 C 49.632812 47.640625 49.539062 45.773438 49.234375 43.9375 C 49.210938 43.828125 49.210938 43.828125 49.195312 43.710938 C 49.109375 43.226562 48.984375 42.757812 48.828125 42.289062 C 48.789062 42.15625 48.75 42.023438 48.710938 41.890625 C 48.3125 40.601562 47.703125 39.40625 47.007812 38.257812 C 46.9375 38.140625 46.867188 38.015625 46.796875 37.898438 C 46.53125 37.460938 46.265625 37.03125 45.976562 36.609375 C 45.546875 35.976562 45.546875 35.976562 45.5625 35.570312 C 45.617188 35.320312 45.78125 35.132812 45.945312 34.9375 C 45.976562 34.890625 46.007812 34.851562 46.046875 34.804688 C 46.164062 34.65625 46.28125 34.507812 46.421875 34.367188 C 46.523438 34.265625 46.570312 34.164062 46.625 34.039062 C 46.671875 34.039062 46.710938 34.039062 46.75 34.039062 C 46.773438 33.976562 46.773438 33.976562 46.796875 33.90625 C 46.882812 33.703125 47 33.570312 47.140625 33.398438 C 47.367188 33.132812 47.367188 33.132812 47.570312 32.851562 C 47.65625 32.71875 47.734375 32.617188 47.851562 32.507812 C 47.867188 32.46875 47.890625 32.429688 47.914062 32.390625 C 47.953125 32.390625 47.992188 32.390625 48.03125 32.390625 C 48.054688 32.335938 48.054688 32.335938 48.078125 32.289062 C 48.179688 32.109375 48.296875 31.953125 48.421875 31.789062 C 48.453125 31.757812 48.476562 31.71875 48.5 31.6875 C 48.742188 31.375 48.984375 31.078125 49.226562 30.773438 C 49.476562 30.460938 49.710938 30.148438 49.945312 29.828125 C 49.976562 29.789062 50.015625 29.742188 50.046875 29.703125 C 50.09375 29.703125 50.132812 29.703125 50.171875 29.703125 C 50.179688 29.664062 50.179688 29.632812 50.1875 29.59375 C 50.25 29.414062 50.328125 29.328125 50.476562 29.210938 C 50.601562 29.21875 50.601562 29.21875 50.71875 29.273438 C 50.796875 29.367188 50.796875 29.367188 50.867188 29.492188 C 50.890625 29.539062 50.914062 29.585938 50.9375 29.632812 C 50.976562 29.703125 50.976562 29.703125 51.015625 29.78125 C 51.070312 29.882812 51.125 29.984375 51.179688 30.085938 C 51.203125 30.132812 51.234375 30.179688 51.257812 30.234375 C 51.359375 30.414062 51.460938 30.59375 51.570312 30.765625 C 51.71875 31.023438 51.835938 31.273438 51.9375 31.554688 C 52.046875 31.820312 52.179688 32.0625 52.3125 32.320312 C 52.640625 32.992188 52.882812 33.703125 53.101562 34.421875 C 53.140625 34.554688 53.1875 34.6875 53.226562 34.828125 C 53.507812 35.71875 53.734375 36.625 53.90625 37.546875 C 53.914062 37.585938 53.921875 37.625 53.929688 37.671875 C 54.054688 38.3125 54.148438 38.945312 54.203125 39.601562 C 54.210938 39.640625 54.21875 39.679688 54.21875 39.726562 C 54.273438 40.179688 54.273438 40.632812 54.273438 41.09375 C 54.273438 41.179688 54.273438 41.265625 54.28125 41.351562 C 54.28125 41.523438 54.28125 41.703125 54.28125 41.875 C 54.28125 42.101562 54.28125 42.328125 54.28125 42.546875 C 54.28125 42.726562 54.28125 42.898438 54.28125 43.070312 C 54.28125 43.195312 54.28125 43.320312 54.28125 43.4375 C 54.28125 43.984375 54.226562 44.5 54.148438 45.039062 C 54.132812 45.132812 54.125 45.21875 54.117188 45.3125 C 53.9375 47.257812 53.476562 49.25 52.6875 51.039062 C 52.617188 51.210938 52.554688 51.375 52.484375 51.546875 C 52.296875 52.039062 52.0625 52.507812 51.820312 52.984375 C 51.78125 53.0625 51.742188 53.140625 51.703125 53.21875 C 51.578125 53.484375 51.4375 53.742188 51.304688 53.992188 C 51.265625 54.0625 51.265625 54.0625 51.234375 54.125 C 51.085938 54.398438 50.9375 54.671875 50.78125 54.9375 C 50.765625 54.976562 50.742188 55.023438 50.71875 55.0625 C 50.679688 55.0625 50.640625 55.0625 50.601562 55.0625 C 50.578125 55.125 50.578125 55.125 50.554688 55.195312 C 50.328125 55.71875 49.9375 56.179688 49.601562 56.632812 C 49.570312 56.679688 49.539062 56.726562 49.5 56.765625 C 49.421875 56.875 49.335938 56.976562 49.257812 57.078125 C 49.21875 57.078125 49.171875 57.078125 49.132812 57.078125 C 49.125 57.140625 49.125 57.140625 49.125 57.210938 C 49.054688 57.4375 48.9375 57.539062 48.765625 57.6875 C 48.8125 57.648438 48.859375 57.609375 48.914062 57.570312 C 49.070312 57.445312 49.070312 57.445312 49.195312 57.445312 C 49.210938 57.40625 49.226562 57.375 49.242188 57.335938 C 49.320312 57.1875 49.414062 57.085938 49.53125 56.96875 C 49.570312 56.929688 49.601562 56.898438 49.640625 56.859375 C 49.742188 56.773438 49.742188 56.773438 49.867188 56.773438 C 49.882812 56.734375 49.898438 56.695312 49.914062 56.65625 C 49.992188 56.53125 49.992188 56.53125 50.171875 56.46875 C 50.21875 56.382812 50.257812 56.304688 50.296875 56.21875 C 50.351562 56.148438 50.40625 56.078125 50.46875 56.015625 C 50.492188 55.976562 50.523438 55.945312 50.554688 55.90625 C 50.632812 55.820312 50.71875 55.734375 50.804688 55.65625 C 50.992188 55.460938 51.171875 55.257812 51.351562 55.054688 C 51.398438 55 51.398438 55 51.453125 54.9375 C 51.757812 54.585938 52.039062 54.21875 52.3125 53.835938 C 52.375 53.757812 52.4375 53.671875 52.5 53.585938 C 52.820312 53.164062 53.117188 52.726562 53.382812 52.265625 C 53.414062 52.21875 53.445312 52.164062 53.476562 52.109375 C 53.507812 52.054688 53.539062 52 53.570312 51.945312 C 53.601562 51.90625 53.625 51.867188 53.65625 51.820312 C 53.695312 51.820312 53.734375 51.820312 53.773438 51.820312 C 53.78125 51.78125 53.789062 51.734375 53.796875 51.695312 C 53.851562 51.476562 53.953125 51.320312 54.070312 51.132812 C 54.25 50.859375 54.398438 50.585938 54.523438 50.289062 C 54.585938 50.140625 54.671875 50.007812 54.757812 49.867188 C 54.796875 49.765625 54.84375 49.664062 54.882812 49.5625 C 54.960938 49.390625 55.039062 49.21875 55.109375 49.046875 C 55.28125 48.679688 55.445312 48.3125 55.601562 47.9375 C 55.632812 47.867188 55.632812 47.867188 55.664062 47.789062 C 55.742188 47.585938 55.804688 47.375 55.867188 47.171875 C 55.945312 46.90625 56.03125 46.640625 56.117188 46.382812 C 56.789062 44.304688 57.25 42.15625 57.3125 39.96875 C 57.3125 39.8125 57.328125 39.679688 57.351562 39.53125 C 57.398438 39.164062 57.390625 38.804688 57.390625 38.4375 C 57.390625 38.359375 57.390625 38.289062 57.390625 38.210938 C 57.390625 37.851562 57.382812 37.507812 57.320312 37.15625 C 57.320312 37.03125 57.3125 36.90625 57.3125 36.78125 C 57.296875 36.164062 57.21875 35.570312 57.117188 34.960938 C 57.101562 34.882812 57.09375 34.804688 57.078125 34.726562 C 57 34.273438 56.914062 33.828125 56.8125 33.375 C 56.773438 33.179688 56.726562 32.976562 56.6875 32.773438 C 56.4375 31.625 56.117188 30.484375 55.6875 29.398438 C 55.632812 29.273438 55.585938 29.148438 55.539062 29.023438 C 55.390625 28.601562 55.210938 28.210938 55.007812 27.820312 C 54.875 27.5625 54.75 27.304688 54.632812 27.039062 C 54.414062 26.5625 54.171875 26.109375 53.898438 25.664062 C 53.859375 25.59375 53.8125 25.523438 53.773438 25.453125 C 53.632812 25.21875 53.492188 24.984375 53.351562 24.75 C 53.320312 24.703125 53.296875 24.664062 53.265625 24.617188 C 53.1875 24.476562 53.101562 24.34375 53.015625 24.203125 C 52.992188 24.164062 52.96875 24.117188 52.9375 24.070312 C 52.875 23.96875 52.804688 23.867188 52.742188 23.773438 C 52.695312 23.773438 52.65625 23.773438 52.617188 23.773438 C 52.53125 23.882812 52.53125 23.882812 52.445312 24.023438 C 52.414062 24.070312 52.382812 24.117188 52.34375 24.171875 C 52.296875 24.25 52.296875 24.25 52.25 24.320312 C 52.148438 24.46875 52.054688 24.609375 51.945312 24.75 C 51.90625 24.75 51.867188 24.75 51.820312 24.75 C 51.78125 24.851562 51.742188 24.953125 51.703125 25.054688 C 51.65625 25.054688 51.617188 25.054688 51.578125 25.054688 C 51.5625 25.101562 51.546875 25.140625 51.53125 25.1875 C 51.445312 25.390625 51.328125 25.53125 51.1875 25.695312 C 50.960938 25.960938 50.960938 25.960938 50.757812 26.25 C 50.664062 26.398438 50.664062 26.398438 50.578125 26.476562 C 50.4375 26.625 50.3125 26.796875 50.1875 26.960938 C 50.140625 27.015625 50.140625 27.015625 50.101562 27.070312 C 49.953125 27.257812 49.8125 27.453125 49.671875 27.648438 C 49.5625 27.789062 49.445312 27.929688 49.328125 28.0625 C 49.109375 28.3125 48.921875 28.578125 48.71875 28.84375 C 48.5625 29.054688 48.390625 29.265625 48.226562 29.476562 C 48.070312 29.671875 47.921875 29.867188 47.773438 30.054688 C 47.742188 30.09375 47.71875 30.125 47.6875 30.15625 C 47.585938 30.296875 47.484375 30.4375 47.382812 30.578125 C 47.351562 30.609375 47.328125 30.640625 47.296875 30.679688 C 47.257812 30.679688 47.21875 30.679688 47.179688 30.679688 C 47.171875 30.710938 47.164062 30.75 47.15625 30.789062 C 47.109375 30.945312 47.039062 31.03125 46.9375 31.164062 C 46.75 31.398438 46.570312 31.632812 46.390625 31.867188 C 46.164062 32.15625 45.9375 32.4375 45.710938 32.71875 C 45.523438 32.96875 45.335938 33.21875 45.15625 33.46875 C 45.039062 33.609375 45.039062 33.609375 44.914062 33.671875 C 44.882812 33.726562 44.859375 33.773438 44.828125 33.828125 C 44.78125 33.90625 44.78125 33.90625 44.734375 33.976562 C 44.695312 33.976562 44.648438 33.976562 44.609375 33.976562 C 44.59375 34.023438 44.578125 34.0625 44.570312 34.109375 C 44.476562 34.3125 44.359375 34.453125 44.21875 34.617188 C 44.039062 34.828125 43.890625 35.023438 43.757812 35.257812 C 43.695312 35.320312 43.632812 35.382812 43.570312 35.445312 C 43.53125 35.507812 43.492188 35.5625 43.453125 35.625 C 43.40625 35.625 43.367188 35.625 43.328125 35.625 C 43.3125 35.664062 43.296875 35.695312 43.28125 35.726562 C 43.1875 35.898438 43.085938 36.046875 42.96875 36.203125 C 42.835938 36.382812 42.695312 36.570312 42.578125 36.757812 C 42.46875 36.914062 42.46875 36.914062 42.390625 36.992188 C 42.25 37.132812 42.140625 37.289062 42.023438 37.445312 C 41.78125 37.757812 41.53125 38.070312 41.273438 38.382812 C 41 38.71875 40.734375 39.0625 40.476562 39.40625 C 40.265625 39.6875 40.046875 39.953125 39.828125 40.21875 C 39.585938 40.515625 39.359375 40.820312 39.140625 41.140625 C 39.109375 41.171875 39.078125 41.210938 39.046875 41.25 C 39.007812 41.25 38.96875 41.25 38.929688 41.25 C 38.921875 41.304688 38.921875 41.304688 38.914062 41.351562 C 38.851562 41.53125 38.757812 41.640625 38.640625 41.789062 C 38.484375 41.976562 38.335938 42.15625 38.203125 42.359375 C 38.15625 42.414062 38.117188 42.476562 38.070312 42.53125 C 38.03125 42.53125 37.992188 42.53125 37.953125 42.53125 C 37.945312 42.570312 37.9375 42.601562 37.929688 42.640625 C 37.882812 42.804688 37.8125 42.882812 37.695312 43 C 37.40625 43.328125 37.132812 43.664062 36.890625 44.03125 C 36.789062 44.179688 36.789062 44.179688 36.664062 44.242188 C 36.640625 44.289062 36.617188 44.328125 36.59375 44.367188 C 36.414062 44.65625 36.195312 44.90625 35.976562 45.164062 C 35.804688 45.382812 35.648438 45.59375 35.507812 45.835938 C 35.445312 45.898438 35.382812 45.953125 35.320312 46.015625 C 35.21875 46.140625 35.117188 46.273438 35.023438 46.398438 C 34.992188 46.4375 34.96875 46.46875 34.9375 46.507812 C 34.8125 46.671875 34.6875 46.835938 34.578125 47.015625 C 34.46875 47.179688 34.46875 47.179688 34.34375 47.242188 C 34.28125 47.34375 34.21875 47.445312 34.164062 47.546875 C 34.054688 47.6875 33.945312 47.828125 33.835938 47.96875 C 33.773438 48.039062 33.71875 48.109375 33.65625 48.179688 C 33.617188 48.234375 33.617188 48.234375 33.570312 48.289062 C 33.484375 48.398438 33.484375 48.398438 33.40625 48.523438 C 33.21875 48.8125 33.21875 48.8125 33.03125 48.875 C 32.804688 48.804688 32.695312 48.648438 32.546875 48.460938 C 32.523438 48.429688 32.492188 48.390625 32.460938 48.351562 C 32.375 48.25 32.289062 48.140625 32.203125 48.03125 C 32.164062 47.976562 32.117188 47.929688 32.078125 47.875 C 31.929688 47.6875 31.789062 47.5 31.65625 47.304688 C 31.46875 47.023438 31.257812 46.765625 31.046875 46.507812 C 30.960938 46.40625 30.882812 46.304688 30.796875 46.203125 C 30.765625 46.15625 30.726562 46.109375 30.695312 46.070312 C 30.617188 45.953125 30.617188 45.953125 30.617188 45.835938 C 30.554688 45.8125 30.492188 45.796875 30.4375 45.773438 C 30.390625 45.648438 30.390625 45.648438 30.375 45.523438 C 30.335938 45.523438 30.289062 45.523438 30.25 45.523438 C 30.171875 45.445312 30.171875 45.445312 30.085938 45.320312 C 30.054688 45.28125 30.023438 45.234375 29.984375 45.195312 C 29.953125 45.148438 29.921875 45.101562 29.890625 45.054688 C 29.851562 45.007812 29.820312 44.96875 29.789062 44.921875 C 29.726562 44.835938 29.664062 44.75 29.601562 44.664062 C 29.539062 44.585938 29.476562 44.5 29.414062 44.421875 C 29.335938 44.304688 29.335938 44.304688 29.335938 44.179688 C 29.273438 44.164062 29.210938 44.140625 29.148438 44.125 C 29.070312 44.03125 29.070312 44.03125 28.984375 43.914062 C 28.953125 43.875 28.921875 43.835938 28.890625 43.789062 C 28.84375 43.726562 28.84375 43.726562 28.796875 43.65625 C 28.585938 43.367188 28.375 43.085938 28.140625 42.820312 C 28 42.664062 27.875 42.5 27.75 42.335938 C 27.726562 42.296875 27.703125 42.265625 27.671875 42.234375 C 27.46875 41.960938 27.265625 41.679688 27.0625 41.40625 C 26.929688 41.21875 26.78125 41.03125 26.640625 40.851562 C 26.523438 40.703125 26.414062 40.554688 26.304688 40.414062 C 26.078125 40.125 25.859375 39.835938 25.625 39.554688 C 25.40625 39.296875 25.210938 39.03125 25.023438 38.75 C 24.9375 38.632812 24.851562 38.539062 24.75 38.4375 C 24.453125 38.09375 24.164062 37.726562 23.890625 37.367188 C 23.820312 37.273438 23.820312 37.273438 23.75 37.179688 C 23.648438 37.03125 23.648438 37.03125 23.648438 36.914062 C 23.585938 36.890625 23.53125 36.875 23.46875 36.851562 C 23.445312 36.789062 23.429688 36.726562 23.40625 36.664062 C 23.335938 36.601562 23.265625 36.53125 23.195312 36.46875 C 22.921875 36.171875 22.695312 35.820312 22.476562 35.476562 C 22.367188 35.320312 22.367188 35.320312 22.226562 35.1875 C 22.195312 35.148438 22.15625 35.117188 22.125 35.078125 C 22.125 35.039062 22.125 35 22.125 34.953125 C 22.085938 34.953125 22.039062 34.953125 22 34.953125 C 21.921875 34.851562 21.84375 34.75 21.773438 34.648438 C 21.625 34.4375 21.476562 34.234375 21.304688 34.039062 C 21.148438 33.851562 21.148438 33.851562 21.085938 33.671875 C 21 33.59375 20.921875 33.507812 20.835938 33.429688 C 20.734375 33.296875 20.632812 33.171875 20.53125 33.039062 C 20.46875 32.960938 20.40625 32.882812 20.351562 32.8125 C 20.320312 32.765625 20.289062 32.726562 20.257812 32.6875 C 20.171875 32.578125 20.078125 32.460938 19.992188 32.351562 C 19.6875 31.96875 19.390625 31.578125 19.109375 31.179688 C 19.015625 31.046875 19.015625 31.046875 18.921875 30.960938 C 18.8125 30.851562 18.726562 30.75 18.640625 30.632812 C 18.609375 30.585938 18.570312 30.539062 18.539062 30.5 C 18.5 30.453125 18.46875 30.40625 18.429688 30.359375 C 18.398438 30.3125 18.367188 30.265625 18.328125 30.21875 C 18.171875 30.007812 18.015625 29.804688 17.859375 29.585938 C 17.757812 29.445312 17.664062 29.335938 17.539062 29.210938 C 17.4375 29.085938 17.335938 28.953125 17.234375 28.828125 C 17.210938 28.789062 17.1875 28.757812 17.15625 28.726562 C 17.03125 28.554688 16.914062 28.390625 16.796875 28.21875 C 16.703125 28.078125 16.617188 27.984375 16.5 27.867188 C 16.195312 27.507812 15.90625 27.140625 15.617188 26.773438 C 15.59375 26.742188 15.570312 26.710938 15.546875 26.671875 C 15.4375 26.53125 15.335938 26.398438 15.25 26.242188 C 15.140625 26.0625 15 25.9375 14.851562 25.789062 C 14.757812 25.671875 14.671875 25.554688 14.585938 25.4375 C 14.414062 25.210938 14.25 24.992188 14.078125 24.773438 C 13.539062 24.085938 13.539062 24.085938 13.382812 23.773438 C 13.34375 23.773438 13.304688 23.773438 13.257812 23.773438 C 13.1875 23.882812 13.117188 23.992188 13.046875 24.109375 C 13 24.179688 12.960938 24.25 12.914062 24.328125 C 12.890625 24.367188 12.867188 24.40625 12.84375 24.445312 C 12.71875 24.65625 12.585938 24.867188 12.453125 25.085938 C 12.429688 25.125 12.398438 25.164062 12.375 25.203125 C 12.265625 25.382812 12.15625 25.554688 12.039062 25.726562 C 11.898438 25.945312 11.78125 26.164062 11.671875 26.398438 C 11.632812 26.484375 11.59375 26.5625 11.546875 26.648438 C 11.53125 26.6875 11.507812 26.726562 11.492188 26.773438 C 11.46875 26.8125 11.445312 26.851562 11.429688 26.890625 C 11.40625 26.929688 11.390625 26.976562 11.367188 27.015625 C 11.265625 27.21875 11.164062 27.414062 11.054688 27.609375 C 10.953125 27.789062 10.875 27.960938 10.804688 28.15625 C 10.726562 28.382812 10.625 28.601562 10.53125 28.828125 C 10.507812 28.890625 10.476562 28.960938 10.453125 29.023438 C 10.429688 29.070312 10.414062 29.109375 10.398438 29.15625 C 10.226562 29.570312 10.078125 29.992188 9.9375 30.421875 C 9.898438 30.539062 9.859375 30.65625 9.8125 30.773438 C 9.664062 31.226562 9.539062 31.671875 9.453125 32.140625 C 9.414062 32.328125 9.351562 32.507812 9.289062 32.695312 C 9.257812 32.84375 9.234375 32.984375 9.210938 33.132812 C 9.15625 33.453125 9.101562 33.773438 9.03125 34.09375 C 8.398438 37.226562 8.375 40.734375 9.1875 43.835938 C 9.234375 44.039062 9.273438 44.242188 9.3125 44.445312 C 9.375 44.757812 9.453125 45.0625 9.546875 45.375 C 9.5625 45.414062 9.578125 45.460938 9.59375 45.5 C 9.632812 45.632812 9.671875 45.765625 9.71875 45.898438 C 9.742188 45.976562 9.765625 46.054688 9.796875 46.140625 C 10.242188 47.523438 10.710938 48.898438 11.421875 50.171875 C 11.554688 50.421875 11.679688 50.671875 11.796875 50.921875 C 11.984375 51.304688 12.195312 51.664062 12.421875 52.015625 C 12.515625 52.171875 12.585938 52.320312 12.648438 52.492188 C 12.6875 52.492188 12.734375 52.492188 12.773438 52.492188 C 12.789062 52.59375 12.8125 52.695312 12.835938 52.796875 C 12.875 52.796875 12.914062 52.796875 12.953125 52.796875 C 13.03125 52.90625 13.109375 53.015625 13.179688 53.125 C 13.40625 53.484375 13.664062 53.8125 13.9375 54.148438 C 14.015625 54.25 14.09375 54.351562 14.179688 54.453125 C 14.210938 54.492188 14.25 54.539062 14.289062 54.585938 C 14.359375 54.695312 14.359375 54.695312 14.359375 54.820312 C 14.398438 54.820312 14.445312 54.820312 14.484375 54.820312 C 14.5 54.867188 14.515625 54.914062 14.53125 54.96875 C 14.554688 55.015625 14.578125 55.070312 14.609375 55.125 C 14.664062 55.140625 14.726562 55.164062 14.789062 55.1875 C 14.828125 55.265625 14.875 55.34375 14.914062 55.429688 C 15.015625 55.539062 15.015625 55.539062 15.140625 55.640625 C 15.34375 55.804688 15.53125 55.96875 15.703125 56.164062 C 15.703125 56.203125 15.703125 56.242188 15.703125 56.28125 C 15.742188 56.28125 15.789062 56.28125 15.828125 56.28125 C 15.914062 56.375 15.914062 56.375 16.015625 56.5 C 16.21875 56.734375 16.4375 56.945312 16.679688 57.148438 C 16.828125 57.28125 16.96875 57.421875 17.109375 57.570312 C 17.109375 57.507812 17.109375 57.445312 17.109375 57.382812 C 17.03125 57.34375 16.953125 57.304688 16.867188 57.257812 C 16.867188 57.203125 16.867188 57.140625 16.867188 57.078125 C 16.835938 57.0625 16.796875 57.054688 16.765625 57.039062 C 16.570312 56.921875 16.460938 56.757812 16.335938 56.578125 C 16.296875 56.523438 16.296875 56.523438 16.257812 56.460938 C 16.179688 56.34375 16.09375 56.21875 16.007812 56.101562 C 15.984375 56.054688 15.953125 56.015625 15.921875 55.96875 C 15.835938 55.84375 15.75 55.71875 15.664062 55.59375 C 15.625 55.539062 15.625 55.539062 15.585938 55.476562 C 15.398438 55.195312 15.398438 55.195312 15.398438 55.0625 C 15.359375 55.0625 15.320312 55.0625 15.28125 55.0625 C 15.242188 54.992188 15.210938 54.921875 15.179688 54.851562 C 15.054688 54.601562 14.914062 54.367188 14.765625 54.125 C 14.640625 53.914062 14.53125 53.695312 14.421875 53.476562 C 14.382812 53.390625 14.34375 53.320312 14.304688 53.242188 C 13.976562 52.59375 13.65625 51.945312 13.390625 51.265625 C 13.335938 51.125 13.28125 50.992188 13.226562 50.851562 C 12.960938 50.195312 12.757812 49.539062 12.570312 48.859375 C 12.53125 48.71875 12.492188 48.578125 12.445312 48.4375 C 11.851562 46.429688 11.703125 44.359375 11.710938 42.273438 C 11.710938 42.101562 11.710938 41.929688 11.710938 41.75 C 11.710938 40.171875 11.710938 40.171875 11.828125 39.4375 C 11.859375 39.226562 11.875 39.015625 11.882812 38.796875 C 11.914062 38.359375 11.992188 37.929688 12.078125 37.492188 C 12.085938 37.453125 12.09375 37.414062 12.101562 37.375 C 12.414062 35.851562 12.84375 34.375 13.445312 32.9375 C 13.46875 32.882812 13.492188 32.820312 13.515625 32.757812 C 14.15625 31.195312 14.15625 31.195312 14.546875 30.554688 C 14.585938 30.484375 14.632812 30.40625 14.679688 30.335938 C 14.890625 29.976562 15.101562 29.617188 15.335938 29.273438 C 15.53125 29.296875 15.617188 29.304688 15.757812 29.453125 C 15.828125 29.578125 15.828125 29.578125 15.828125 29.703125 C 15.867188 29.703125 15.90625 29.703125 15.953125 29.703125 C 16.0625 29.84375 16.171875 29.992188 16.28125 30.140625 C 16.523438 30.460938 16.765625 30.78125 17.03125 31.085938 C 17.40625 31.523438 17.773438 31.976562 18.09375 32.460938 C 18.203125 32.617188 18.3125 32.742188 18.453125 32.875 C 18.546875 32.992188 18.640625 33.117188 18.734375 33.234375 C 18.773438 33.296875 18.820312 33.359375 18.867188 33.421875 C 18.960938 33.546875 19.046875 33.679688 19.132812 33.8125 C 19.242188 33.992188 19.242188 33.992188 19.429688 34.101562 C 19.5 34.203125 19.554688 34.304688 19.617188 34.40625 C 19.71875 34.539062 19.820312 34.671875 19.921875 34.804688 C 20.023438 34.9375 20.125 35.070312 20.226562 35.203125 C 20.265625 35.242188 20.296875 35.289062 20.335938 35.335938 C 20.4375 35.484375 20.445312 35.617188 20.4375 35.796875 C 20.382812 36.078125 20.203125 36.304688 20.046875 36.546875 C 19.664062 37.101562 19.328125 37.664062 19.007812 38.257812 C 18.96875 38.257812 18.921875 38.257812 18.882812 38.257812 C 18.867188 38.34375 18.867188 38.34375 18.84375 38.429688 C 18.773438 38.6875 18.648438 38.882812 18.507812 39.109375 C 17.945312 40.039062 17.53125 41.007812 17.226562 42.046875 C 17.1875 42.179688 17.140625 42.3125 17.101562 42.445312 C 16.90625 43.039062 16.773438 43.625 16.679688 44.242188 C 16.664062 44.359375 16.664062 44.359375 16.648438 44.46875 C 16.515625 45.320312 16.484375 46.171875 16.484375 47.03125 C 16.492188 47.078125 16.492188 47.132812 16.492188 47.179688 C 16.492188 49.320312 16.882812 51.476562 17.664062 53.476562 C 17.6875 53.53125 17.710938 53.59375 17.734375 53.65625 C 17.890625 54.046875 18.0625 54.421875 18.242188 54.804688 C 18.265625 54.851562 18.289062 54.898438 18.3125 54.945312 C 18.4375 55.21875 18.578125 55.476562 18.742188 55.726562 C 18.828125 55.867188 18.914062 56.015625 19 56.164062 C 19.03125 56.210938 19.0625 56.265625 19.101562 56.320312 C 19.164062 56.429688 19.226562 56.539062 19.289062 56.648438 C 19.335938 56.726562 19.335938 56.726562 19.382812 56.804688 C 19.40625 56.851562 19.4375 56.898438 19.46875 56.945312 C 19.5625 57.085938 19.671875 57.203125 19.796875 57.320312 C 19.890625 57.4375 19.96875 57.546875 20.054688 57.664062 C 20.539062 58.3125 20.539062 58.3125 21.085938 58.914062 C 21.148438 58.984375 21.210938 59.0625 21.28125 59.140625 C 21.5 59.398438 21.742188 59.609375 22 59.828125 C 22.0625 59.882812 22.125 59.9375 22.1875 59.992188 C 22.546875 60.296875 22.90625 60.585938 23.296875 60.84375 C 23.351562 60.882812 23.351562 60.882812 23.40625 60.929688 C 23.40625 60.96875 23.40625 61.007812 23.40625 61.046875 C 23.445312 61.0625 23.492188 61.078125 23.539062 61.09375 C 23.726562 61.179688 23.890625 61.273438 24.0625 61.382812 C 24.125 61.421875 24.1875 61.460938 24.25 61.5 C 24.289062 61.53125 24.335938 61.5625 24.382812 61.601562 C 24.382812 61.640625 24.382812 61.679688 24.382812 61.726562 C 24.453125 61.734375 24.453125 61.734375 24.515625 61.742188 C 24.710938 61.789062 24.835938 61.859375 25 61.976562 C 25.078125 62.03125 25.078125 62.03125 25.15625 62.085938 C 25.375 62.273438 25.46875 62.445312 25.5 62.734375 C 25.507812 62.921875 25.507812 63.101562 25.507812 63.289062 C 25.507812 63.351562 25.507812 63.414062 25.507812 63.476562 C 25.507812 63.539062 25.507812 63.601562 25.507812 63.664062 C 25.507812 63.71875 25.507812 63.773438 25.507812 63.828125 C 25.476562 64.007812 25.414062 64.09375 25.296875 64.226562 C 24.992188 64.1875 24.71875 64.125 24.421875 64.03125 C 24.382812 64.015625 24.34375 64.007812 24.296875 63.992188 C 24.164062 63.953125 24.03125 63.90625 23.898438 63.859375 C 23.828125 63.835938 23.828125 63.835938 23.757812 63.820312 C 22.882812 63.53125 22.023438 63.234375 21.195312 62.84375 C 21.054688 62.78125 20.921875 62.726562 20.789062 62.671875 C 20.203125 62.460938 19.648438 62.164062 19.09375 61.890625 C 19.054688 61.875 19.015625 61.851562 18.96875 61.835938 C 18.726562 61.710938 18.5 61.570312 18.273438 61.414062 C 18.164062 61.351562 18.054688 61.289062 17.9375 61.234375 C 17.679688 61.09375 17.421875 60.953125 17.171875 60.804688 C 17.171875 60.765625 17.171875 60.726562 17.171875 60.679688 C 17.070312 60.664062 16.96875 60.640625 16.867188 60.625 C 16.867188 60.578125 16.867188 60.539062 16.867188 60.5 C 16.8125 60.484375 16.765625 60.46875 16.710938 60.453125 C 16.476562 60.367188 16.296875 60.25 16.101562 60.101562 C 16.023438 60.046875 15.953125 59.992188 15.875 59.9375 C 15.835938 59.90625 15.796875 59.882812 15.757812 59.851562 C 15.648438 59.765625 15.53125 59.6875 15.414062 59.609375 C 15.359375 59.570312 15.359375 59.570312 15.296875 59.53125 C 15.195312 59.460938 15.09375 59.398438 14.992188 59.328125 C 14.945312 59.289062 14.898438 59.257812 14.851562 59.21875 C 14.851562 59.179688 14.851562 59.132812 14.851562 59.09375 C 14.78125 59.070312 14.78125 59.070312 14.71875 59.046875 C 14.515625 58.960938 14.375 58.84375 14.210938 58.703125 C 14.15625 58.65625 14.09375 58.609375 14.039062 58.5625 C 13.953125 58.492188 13.953125 58.492188 13.875 58.421875 C 13.8125 58.375 13.757812 58.335938 13.695312 58.289062 C 13.632812 58.234375 13.632812 58.234375 13.570312 58.179688 C 13.570312 58.140625 13.570312 58.09375 13.570312 58.054688 C 13.53125 58.046875 13.492188 58.046875 13.453125 58.039062 C 13.320312 57.992188 13.320312 57.992188 13.265625 57.875 C 13.171875 57.703125 13.070312 57.695312 12.898438 57.625 C 12.789062 57.53125 12.6875 57.421875 12.585938 57.320312 C 12.460938 57.203125 12.335938 57.09375 12.210938 56.976562 C 11.632812 56.445312 11.085938 55.890625 10.585938 55.28125 C 10.453125 55.117188 10.453125 55.117188 10.265625 55 C 10.234375 54.90625 10.234375 54.90625 10.203125 54.820312 C 10.132812 54.742188 10.0625 54.671875 9.992188 54.601562 C 9.617188 54.226562 9.15625 53.765625 8.921875 53.289062 C 8.84375 53.132812 8.734375 53.039062 8.617188 52.921875 C 8.546875 52.820312 8.46875 52.71875 8.398438 52.617188 C 8.289062 52.460938 8.179688 52.296875 8.054688 52.148438 C 7.945312 52.007812 7.859375 51.859375 7.773438 51.703125 C 7.6875 51.554688 7.59375 51.421875 7.492188 51.289062 C 7.304688 51.023438 7.148438 50.75 6.992188 50.460938 C 6.820312 50.140625 6.632812 49.820312 6.421875 49.515625 C 6.265625 49.265625 6.140625 49.007812 6.015625 48.742188 C 5.976562 48.640625 5.929688 48.546875 5.882812 48.445312 C 5.84375 48.375 5.84375 48.375 5.8125 48.296875 C 5.75 48.164062 5.6875 48.039062 5.625 47.914062 C 5.484375 47.632812 5.359375 47.351562 5.234375 47.070312 C 5.210938 47.007812 5.1875 46.953125 5.164062 46.898438 C 4.96875 46.429688 4.789062 45.953125 4.617188 45.476562 C 4.546875 45.28125 4.46875 45.085938 4.390625 44.890625 C 4.132812 44.273438 3.976562 43.617188 3.820312 42.960938 C 3.765625 42.757812 3.71875 42.554688 3.664062 42.34375 C 3.65625 42.304688 3.648438 42.265625 3.632812 42.226562 C 3.570312 41.945312 3.492188 41.671875 3.414062 41.398438 C 3.320312 41.039062 3.257812 40.6875 3.210938 40.320312 C 3.179688 40.085938 3.132812 39.859375 3.085938 39.632812 C 2.992188 39.140625 2.9375 38.648438 2.890625 38.148438 C 2.882812 38.085938 2.882812 38.085938 2.882812 38.015625 C 2.796875 37.039062 2.78125 36.070312 2.789062 35.09375 C 2.789062 34.859375 2.789062 34.625 2.789062 34.390625 C 2.78125 32.890625 2.84375 31.398438 3.179688 29.929688 C 3.234375 29.695312 3.265625 29.460938 3.296875 29.226562 C 3.359375 28.789062 3.453125 28.359375 3.570312 27.929688 C 3.585938 27.859375 3.601562 27.78125 3.625 27.703125 C 3.664062 27.5625 3.703125 27.414062 3.734375 27.265625 C 3.78125 27.101562 3.820312 26.9375 3.867188 26.773438 C 3.960938 26.40625 4.070312 26.070312 4.21875 25.726562 C 4.257812 25.601562 4.296875 25.46875 4.335938 25.335938 C 4.5 24.789062 4.6875 24.265625 4.914062 23.742188 C 5.054688 23.429688 5.195312 23.109375 5.320312 22.78125 C 5.421875 22.523438 5.539062 22.273438 5.664062 22.023438 C 5.6875 21.984375 5.703125 21.945312 5.726562 21.898438 C 5.953125 21.460938 6.179688 21.023438 6.414062 20.585938 C 6.46875 20.484375 6.523438 20.390625 6.578125 20.289062 C 6.921875 19.640625 7.296875 19.007812 7.726562 18.40625 C 7.859375 18.226562 7.960938 18.039062 8.070312 17.84375 C 8.109375 17.84375 8.148438 17.84375 8.1875 17.84375 C 8.203125 17.804688 8.21875 17.757812 8.234375 17.710938 C 8.320312 17.515625 8.421875 17.367188 8.554688 17.203125 C 8.671875 17.039062 8.789062 16.882812 8.890625 16.710938 C 8.992188 16.554688 9.09375 16.445312 9.226562 16.320312 C 9.335938 16.179688 9.4375 16.046875 9.546875 15.914062 C 10.140625 15.148438 10.140625 15.148438 10.453125 14.851562 C 10.492188 14.851562 10.53125 14.851562 10.570312 14.851562 C 10.585938 14.8125 10.601562 14.773438 10.625 14.734375 C 10.695312 14.609375 10.695312 14.609375 10.875 14.546875 C 10.898438 14.492188 10.914062 14.445312 10.9375 14.390625 C 10.953125 14.34375 10.976562 14.289062 11 14.242188 C 11.132812 14.1875 11.132812 14.1875 11.242188 14.179688 C 11.265625 14.09375 11.28125 14.015625 11.304688 13.9375 C 11.34375 13.929688 11.382812 13.929688 11.421875 13.921875 C 11.460938 13.90625 11.507812 13.890625 11.546875 13.875 C 11.59375 13.773438 11.632812 13.671875 11.671875 13.570312 C 11.734375 13.546875 11.789062 13.523438 11.851562 13.507812 C 11.9375 13.40625 12.015625 13.304688 12.101562 13.203125 C 12.140625 13.203125 12.179688 13.203125 12.226562 13.203125 C 12.242188 13.164062 12.257812 13.125 12.273438 13.078125 C 12.34375 12.953125 12.34375 12.953125 12.523438 12.898438 C 12.546875 12.851562 12.5625 12.8125 12.585938 12.773438 C 12.664062 12.617188 12.742188 12.601562 12.898438 12.523438 C 12.9375 12.445312 12.976562 12.367188 13.015625 12.28125 C 13.078125 12.265625 13.140625 12.242188 13.203125 12.226562 C 13.21875 12.1875 13.234375 12.148438 13.25 12.109375 C 13.351562 11.921875 13.507812 11.84375 13.6875 11.734375 C 13.875 11.609375 13.875 11.609375 14.046875 11.609375 Z M 17.171875 57.625 C 17.171875 57.671875 17.171875 57.710938 17.171875 57.75 C 17.210938 57.726562 17.25 57.710938 17.296875 57.6875 C 17.257812 57.671875 17.210938 57.648438 17.171875 57.625 Z M 17.171875 57.625 "/>
<path style=" stroke:none;fill-rule:nonzero;fill:rgb(99.607843%,99.607843%,99.607843%);fill-opacity:1;" d="M 32.9375 1.648438 C 33.0625 1.65625 33.0625 1.65625 33.179688 1.710938 C 33.257812 1.828125 33.257812 1.828125 33.328125 1.976562 C 33.460938 2.273438 33.617188 2.53125 33.796875 2.804688 C 33.914062 2.984375 34.03125 3.171875 34.140625 3.359375 C 34.375 3.726562 34.601562 4.09375 34.859375 4.445312 C 34.960938 4.585938 35.046875 4.742188 35.132812 4.898438 C 35.25 5.101562 35.382812 5.289062 35.515625 5.484375 C 35.539062 5.523438 35.570312 5.5625 35.59375 5.609375 C 35.648438 5.679688 35.695312 5.757812 35.742188 5.828125 C 35.929688 6.109375 35.929688 6.109375 35.929688 6.296875 C 35.976562 6.296875 36.015625 6.296875 36.054688 6.296875 C 36.132812 6.40625 36.132812 6.40625 36.21875 6.5625 C 36.382812 6.84375 36.5625 7.109375 36.75 7.375 C 37.03125 7.78125 37.03125 7.78125 37.03125 7.945312 C 37.070312 7.945312 37.117188 7.945312 37.15625 7.945312 C 37.242188 8.0625 37.242188 8.0625 37.328125 8.226562 C 37.46875 8.46875 37.609375 8.695312 37.765625 8.921875 C 37.960938 9.226562 38.15625 9.53125 38.34375 9.835938 C 38.601562 10.25 38.859375 10.65625 39.140625 11.054688 C 39.257812 11.21875 39.367188 11.382812 39.476562 11.546875 C 39.515625 11.609375 39.5625 11.671875 39.601562 11.734375 C 39.601562 11.796875 39.601562 11.851562 39.601562 11.914062 C 39.640625 11.914062 39.679688 11.914062 39.71875 11.914062 C 39.804688 12.03125 39.804688 12.03125 39.90625 12.195312 C 39.945312 12.25 39.984375 12.3125 40.023438 12.375 C 40.039062 12.414062 40.0625 12.445312 40.085938 12.476562 C 40.203125 12.679688 40.328125 12.882812 40.453125 13.078125 C 40.492188 13.140625 40.492188 13.140625 40.539062 13.210938 C 40.710938 13.492188 40.890625 13.757812 41.085938 14.03125 C 41.242188 14.257812 41.390625 14.5 41.53125 14.734375 C 41.710938 15.03125 41.898438 15.320312 42.09375 15.609375 C 42.125 15.664062 42.15625 15.710938 42.195312 15.765625 C 42.367188 16.03125 42.539062 16.296875 42.71875 16.5625 C 42.8125 16.710938 42.914062 16.859375 43.007812 17 C 43.03125 17.039062 43.054688 17.078125 43.085938 17.117188 C 43.265625 17.40625 43.265625 17.40625 43.265625 17.539062 C 43.304688 17.539062 43.34375 17.539062 43.390625 17.539062 C 43.476562 17.664062 43.554688 17.789062 43.640625 17.921875 C 43.65625 17.960938 43.679688 18 43.703125 18.03125 C 43.898438 18.351562 43.960938 18.570312 43.9375 18.945312 C 43.828125 19.257812 43.6875 19.46875 43.46875 19.726562 C 43.210938 20.023438 42.976562 20.328125 42.75 20.65625 C 42.71875 20.695312 42.6875 20.734375 42.65625 20.773438 C 42.617188 20.773438 42.578125 20.773438 42.53125 20.773438 C 42.523438 20.820312 42.523438 20.859375 42.515625 20.898438 C 42.5 20.9375 42.484375 20.976562 42.46875 21.023438 C 42.414062 21.039062 42.351562 21.0625 42.289062 21.085938 C 42.25 21.1875 42.203125 21.289062 42.164062 21.390625 C 42.078125 21.5 41.992188 21.609375 41.898438 21.71875 C 41.742188 21.90625 41.59375 22.085938 41.46875 22.289062 C 41.4375 22.335938 41.40625 22.382812 41.375 22.429688 C 41.328125 22.429688 41.289062 22.429688 41.25 22.429688 C 41.234375 22.476562 41.21875 22.523438 41.203125 22.570312 C 41.125 22.734375 41.070312 22.789062 40.945312 22.914062 C 40.851562 23.03125 40.765625 23.148438 40.679688 23.265625 C 40.65625 23.296875 40.625 23.335938 40.601562 23.367188 C 40.46875 23.546875 40.34375 23.726562 40.210938 23.90625 C 40.148438 23.992188 40.148438 23.992188 40.085938 24.078125 C 40.046875 24.078125 40.007812 24.078125 39.96875 24.078125 C 39.953125 24.117188 39.9375 24.164062 39.921875 24.210938 C 39.828125 24.414062 39.695312 24.578125 39.546875 24.75 C 39.359375 24.96875 39.171875 25.195312 38.992188 25.421875 C 38.851562 25.40625 38.851562 25.40625 38.6875 25.359375 C 38.578125 25.234375 38.578125 25.234375 38.476562 25.0625 C 38.4375 25 38.40625 24.9375 38.367188 24.875 C 38.328125 24.8125 38.296875 24.757812 38.257812 24.6875 C 38.1875 24.578125 38.117188 24.460938 38.039062 24.351562 C 37.992188 24.265625 37.992188 24.265625 37.9375 24.179688 C 37.828125 24.023438 37.726562 23.867188 37.617188 23.71875 C 37.390625 23.398438 37.1875 23.0625 36.976562 22.726562 C 36.65625 22.1875 36.328125 21.664062 35.96875 21.15625 C 35.5625 20.585938 35.5625 20.585938 35.5625 20.414062 C 35.523438 20.414062 35.484375 20.414062 35.445312 20.414062 C 35.34375 20.257812 35.25 20.109375 35.15625 19.960938 C 35.101562 19.867188 35.046875 19.773438 34.992188 19.6875 C 34.960938 19.640625 34.9375 19.601562 34.90625 19.554688 C 34.820312 19.40625 34.71875 19.257812 34.625 19.117188 C 34.28125 18.609375 34.28125 18.609375 34.28125 18.453125 C 34.242188 18.453125 34.203125 18.453125 34.164062 18.453125 C 34.085938 18.351562 34.085938 18.351562 34 18.195312 C 33.851562 17.945312 33.695312 17.6875 33.539062 17.4375 C 33.375 17.164062 33.21875 16.898438 33.0625 16.625 C 33.03125 16.648438 33.007812 16.679688 32.976562 16.710938 C 32.875 16.804688 32.875 16.804688 32.757812 16.804688 C 32.734375 16.890625 32.734375 16.890625 32.710938 16.96875 C 32.632812 17.179688 32.53125 17.304688 32.390625 17.476562 C 32.328125 17.578125 32.273438 17.679688 32.21875 17.78125 C 32.132812 17.929688 32.039062 18.0625 31.9375 18.195312 C 31.78125 18.414062 31.648438 18.632812 31.523438 18.867188 C 31.429688 19.054688 31.328125 19.226562 31.1875 19.390625 C 31.054688 19.539062 30.96875 19.6875 30.867188 19.867188 C 30.789062 20 30.695312 20.132812 30.601562 20.265625 C 30.382812 20.570312 30.195312 20.882812 30 21.203125 C 29.90625 21.351562 29.804688 21.507812 29.710938 21.648438 C 29.484375 21.984375 29.273438 22.328125 29.054688 22.671875 C 29.03125 22.710938 29.007812 22.75 28.984375 22.796875 C 28.929688 22.882812 28.875 22.96875 28.820312 23.054688 C 28.78125 23.125 28.78125 23.125 28.742188 23.1875 C 28.71875 23.234375 28.695312 23.273438 28.664062 23.3125 C 28.648438 23.34375 28.625 23.375 28.601562 23.40625 C 28.5625 23.40625 28.515625 23.40625 28.476562 23.40625 C 28.460938 23.453125 28.445312 23.492188 28.429688 23.539062 C 28.351562 23.710938 28.265625 23.867188 28.164062 24.023438 C 28.101562 24.109375 28.101562 24.109375 28.046875 24.203125 C 28.007812 24.257812 27.96875 24.320312 27.929688 24.382812 C 27.851562 24.5 27.773438 24.625 27.695312 24.742188 C 27.664062 24.796875 27.632812 24.851562 27.59375 24.898438 C 27.5 25.054688 27.5 25.054688 27.414062 25.226562 C 27.3125 25.359375 27.3125 25.359375 27.148438 25.414062 C 27.085938 25.414062 27.085938 25.414062 27.007812 25.421875 C 26.882812 25.265625 26.75 25.109375 26.625 24.945312 C 26.585938 24.90625 26.554688 24.859375 26.515625 24.8125 C 26.460938 24.75 26.460938 24.75 26.40625 24.679688 C 26.359375 24.625 26.359375 24.625 26.3125 24.5625 C 26.28125 24.523438 26.25 24.484375 26.21875 24.445312 C 26.179688 24.398438 26.148438 24.359375 26.109375 24.3125 C 26.03125 24.203125 26.03125 24.203125 26.03125 24.078125 C 25.976562 24.0625 25.976562 24.0625 25.929688 24.039062 C 25.773438 23.945312 25.710938 23.859375 25.625 23.710938 C 25.523438 23.554688 25.414062 23.40625 25.304688 23.25 C 25.265625 23.195312 25.226562 23.140625 25.1875 23.085938 C 25.070312 22.9375 24.953125 22.796875 24.835938 22.65625 C 24.664062 22.445312 24.507812 22.234375 24.351562 22.023438 C 24.28125 21.9375 24.210938 21.84375 24.140625 21.757812 C 24.109375 21.710938 24.078125 21.671875 24.046875 21.625 C 23.96875 21.53125 23.890625 21.429688 23.804688 21.335938 C 23.710938 21.203125 23.710938 21.203125 23.710938 21.085938 C 23.632812 21.046875 23.546875 21 23.46875 20.960938 C 23.46875 20.898438 23.46875 20.84375 23.46875 20.773438 C 23.40625 20.757812 23.34375 20.734375 23.28125 20.71875 C 23.1875 20.601562 23.101562 20.484375 23.015625 20.367188 C 22.796875 20.070312 22.796875 20.070312 22.5625 19.78125 C 22.265625 19.421875 22.039062 19.140625 22.046875 18.648438 C 22.09375 18.257812 22.382812 17.898438 22.601562 17.578125 C 22.625 17.539062 22.65625 17.5 22.679688 17.453125 C 22.867188 17.179688 23.054688 16.90625 23.25 16.640625 C 23.476562 16.3125 23.6875 15.992188 23.882812 15.648438 C 24.15625 15.164062 24.453125 14.703125 24.78125 14.25 C 24.929688 14.03125 25.054688 13.804688 25.179688 13.570312 C 25.21875 13.570312 25.257812 13.570312 25.296875 13.570312 C 25.3125 13.523438 25.335938 13.476562 25.351562 13.429688 C 25.421875 13.257812 25.515625 13.109375 25.617188 12.945312 C 25.65625 12.890625 25.695312 12.828125 25.734375 12.773438 C 25.773438 12.710938 25.8125 12.648438 25.851562 12.585938 C 25.921875 12.476562 25.992188 12.367188 26.0625 12.25 C 26.117188 12.171875 26.117188 12.171875 26.171875 12.085938 C 26.242188 11.96875 26.320312 11.851562 26.390625 11.734375 C 26.695312 11.242188 26.695312 11.242188 26.867188 11.054688 C 27.023438 10.867188 27.125 10.679688 27.234375 10.46875 C 27.3125 10.328125 27.398438 10.210938 27.5 10.09375 C 27.640625 9.898438 27.757812 9.710938 27.867188 9.492188 C 28.007812 9.234375 28.164062 9.03125 28.351562 8.796875 C 28.453125 8.625 28.546875 8.453125 28.640625 8.28125 C 28.726562 8.125 28.726562 8.125 28.84375 7.945312 C 28.882812 7.945312 28.921875 7.945312 28.96875 7.945312 C 28.984375 7.898438 29 7.859375 29.015625 7.8125 C 29.09375 7.632812 29.179688 7.484375 29.28125 7.328125 C 29.34375 7.234375 29.34375 7.234375 29.398438 7.148438 C 29.4375 7.085938 29.476562 7.03125 29.515625 6.96875 C 29.585938 6.859375 29.648438 6.757812 29.71875 6.648438 C 29.773438 6.570312 29.773438 6.570312 29.828125 6.484375 C 29.921875 6.335938 30.007812 6.1875 30.101562 6.039062 C 30.132812 5.992188 30.15625 5.945312 30.1875 5.898438 C 30.242188 5.8125 30.296875 5.71875 30.351562 5.632812 C 30.414062 5.523438 30.484375 5.421875 30.554688 5.320312 C 30.59375 5.320312 30.632812 5.320312 30.679688 5.320312 C 30.695312 5.21875 30.71875 5.117188 30.742188 5.007812 C 30.78125 5.007812 30.820312 5.007812 30.859375 5.007812 C 30.875 4.96875 30.890625 4.929688 30.898438 4.890625 C 31.015625 4.640625 31.164062 4.421875 31.3125 4.1875 C 31.359375 4.125 31.359375 4.125 31.398438 4.054688 C 31.523438 3.859375 31.65625 3.671875 31.78125 3.484375 C 31.921875 3.265625 32.0625 3.046875 32.203125 2.820312 C 32.242188 2.757812 32.242188 2.757812 32.28125 2.695312 C 32.453125 2.421875 32.609375 2.148438 32.757812 1.867188 C 32.820312 1.773438 32.820312 1.773438 32.9375 1.648438 Z M 32.9375 1.648438 "/>
</g>
</svg>
