<?xml version="1.0" encoding="UTF-8"?>
<svg xmlns="http://www.w3.org/2000/svg" xmlns:xlink="http://www.w3.org/1999/xlink" width="25px" height="25px" viewBox="0 0 25 25" version="1.1">
<g id="surface1">
<path style=" stroke:none;fill-rule:nonzero;fill:rgb(81.960785%,81.960785%,81.960785%);fill-opacity:1;" d="M 6.933594 -0.0234375 C 7.070312 -0.0273438 7.207031 -0.0273438 7.339844 -0.0273438 C 7.667969 -0.0273438 7.992188 -0.0273438 8.320312 -0.0273438 C 8.585938 -0.0273438 8.851562 -0.0273438 9.117188 -0.0273438 C 9.15625 -0.0273438 9.195312 -0.0273438 9.234375 -0.0273438 C 9.3125 -0.0273438 9.386719 -0.0273438 9.464844 -0.0273438 C 10.1875 -0.0273438 10.910156 -0.0273438 11.632812 -0.0234375 C 12.253906 -0.0234375 12.871094 -0.0234375 13.488281 -0.0273438 C 14.210938 -0.0273438 14.929688 -0.0273438 15.652344 -0.0273438 C 15.726562 -0.0273438 15.804688 -0.0273438 15.882812 -0.0273438 C 15.9375 -0.0273438 15.9375 -0.0273438 15.996094 -0.0273438 C 16.261719 -0.0273438 16.527344 -0.0273438 16.792969 -0.0273438 C 17.117188 -0.0273438 17.441406 -0.0273438 17.761719 -0.0273438 C 17.929688 -0.0273438 18.09375 -0.0234375 18.257812 -0.0273438 C 20.082031 -0.03125 21.621094 0.429688 22.996094 1.660156 C 23.066406 1.722656 23.066406 1.722656 23.136719 1.785156 C 23.808594 2.421875 24.320312 3.25 24.648438 4.113281 C 24.660156 4.148438 24.675781 4.179688 24.6875 4.214844 C 25.007812 5.101562 25.027344 6.003906 25.023438 6.933594 C 25.027344 7.070312 25.027344 7.207031 25.027344 7.339844 C 25.027344 7.667969 25.027344 7.992188 25.027344 8.320312 C 25.027344 8.585938 25.027344 8.851562 25.027344 9.117188 C 25.027344 9.15625 25.027344 9.195312 25.027344 9.234375 C 25.027344 9.3125 25.027344 9.386719 25.027344 9.464844 C 25.027344 10.1875 25.027344 10.910156 25.023438 11.632812 C 25.023438 12.253906 25.023438 12.871094 25.027344 13.488281 C 25.027344 14.210938 25.027344 14.929688 25.027344 15.652344 C 25.027344 15.726562 25.027344 15.804688 25.027344 15.882812 C 25.027344 15.917969 25.027344 15.957031 25.027344 15.996094 C 25.027344 16.261719 25.027344 16.527344 25.027344 16.792969 C 25.027344 17.117188 25.027344 17.441406 25.027344 17.761719 C 25.027344 17.929688 25.023438 18.09375 25.027344 18.257812 C 25.03125 20.082031 24.570312 21.621094 23.339844 22.996094 C 23.300781 23.042969 23.257812 23.089844 23.214844 23.136719 C 22.578125 23.808594 21.75 24.320312 20.886719 24.648438 C 20.851562 24.660156 20.820312 24.675781 20.785156 24.6875 C 19.898438 25.007812 18.996094 25.027344 18.066406 25.023438 C 17.929688 25.027344 17.792969 25.027344 17.660156 25.027344 C 17.332031 25.027344 17.007812 25.027344 16.679688 25.027344 C 16.414062 25.027344 16.148438 25.027344 15.882812 25.027344 C 15.84375 25.027344 15.804688 25.027344 15.765625 25.027344 C 15.6875 25.027344 15.613281 25.027344 15.535156 25.027344 C 14.8125 25.027344 14.089844 25.027344 13.367188 25.023438 C 12.746094 25.023438 12.128906 25.023438 11.511719 25.027344 C 10.789062 25.027344 10.070312 25.027344 9.347656 25.027344 C 9.273438 25.027344 9.195312 25.027344 9.117188 25.027344 C 9.082031 25.027344 9.042969 25.027344 9.003906 25.027344 C 8.738281 25.027344 8.472656 25.027344 8.207031 25.027344 C 7.882812 25.027344 7.558594 25.027344 7.238281 25.027344 C 7.070312 25.027344 6.90625 25.023438 6.742188 25.027344 C 4.917969 25.03125 3.378906 24.570312 2.003906 23.339844 C 1.957031 23.300781 1.910156 23.257812 1.863281 23.214844 C 1.191406 22.578125 0.679688 21.75 0.351562 20.886719 C 0.339844 20.851562 0.324219 20.820312 0.3125 20.785156 C -0.0078125 19.898438 -0.0273438 18.996094 -0.0234375 18.066406 C -0.0273438 17.929688 -0.0273438 17.792969 -0.0273438 17.660156 C -0.0273438 17.332031 -0.0273438 17.007812 -0.0273438 16.679688 C -0.0273438 16.414062 -0.0273438 16.148438 -0.0273438 15.882812 C -0.0273438 15.84375 -0.0273438 15.804688 -0.0273438 15.765625 C -0.0273438 15.6875 -0.0273438 15.613281 -0.0273438 15.535156 C -0.0273438 14.8125 -0.0273438 14.089844 -0.0234375 13.367188 C -0.0234375 12.746094 -0.0234375 12.128906 -0.0273438 11.511719 C -0.0273438 10.789062 -0.0273438 10.070312 -0.0273438 9.347656 C -0.0273438 9.273438 -0.0273438 9.195312 -0.0273438 9.117188 C -0.0273438 9.082031 -0.0273438 9.042969 -0.0273438 9.003906 C -0.0273438 8.738281 -0.0273438 8.472656 -0.0273438 8.207031 C -0.0273438 7.882812 -0.0273438 7.558594 -0.0273438 7.238281 C -0.0273438 7.070312 -0.0234375 6.90625 -0.0273438 6.742188 C -0.03125 4.917969 0.429688 3.378906 1.660156 2 C 1.699219 1.957031 1.742188 1.910156 1.785156 1.863281 C 2.421875 1.191406 3.25 0.679688 4.113281 0.351562 C 4.148438 0.339844 4.179688 0.324219 4.214844 0.3125 C 5.101562 -0.0078125 6.003906 -0.0273438 6.933594 -0.0234375 Z M 2.539062 1.804688 C 2.492188 1.847656 2.441406 1.886719 2.390625 1.929688 C 1.613281 2.601562 1.046875 3.476562 0.714844 4.445312 C 0.699219 4.496094 0.699219 4.496094 0.679688 4.542969 C 0.421875 5.355469 0.417969 6.148438 0.417969 6.992188 C 0.417969 7.125 0.417969 7.257812 0.417969 7.390625 C 0.417969 7.714844 0.417969 8.039062 0.417969 8.359375 C 0.417969 8.621094 0.417969 8.886719 0.417969 9.148438 C 0.417969 9.183594 0.417969 9.222656 0.417969 9.261719 C 0.417969 9.339844 0.417969 9.414062 0.417969 9.492188 C 0.417969 10.203125 0.417969 10.917969 0.417969 11.632812 C 0.417969 12.285156 0.417969 12.933594 0.417969 13.585938 C 0.414062 14.257812 0.414062 14.925781 0.414062 15.597656 C 0.414062 15.972656 0.414062 16.347656 0.414062 16.722656 C 0.414062 17.042969 0.414062 17.363281 0.414062 17.683594 C 0.414062 17.847656 0.414062 18.007812 0.414062 18.171875 C 0.410156 19.792969 0.75 21.203125 1.808594 22.460938 C 1.847656 22.507812 1.886719 22.558594 1.929688 22.609375 C 2.601562 23.386719 3.476562 23.953125 4.445312 24.285156 C 4.480469 24.296875 4.511719 24.308594 4.542969 24.320312 C 5.355469 24.578125 6.148438 24.582031 6.992188 24.582031 C 7.125 24.582031 7.257812 24.582031 7.390625 24.582031 C 7.714844 24.582031 8.039062 24.582031 8.359375 24.582031 C 8.621094 24.582031 8.886719 24.582031 9.148438 24.582031 C 9.183594 24.582031 9.222656 24.582031 9.261719 24.582031 C 9.339844 24.582031 9.414062 24.582031 9.492188 24.582031 C 10.203125 24.582031 10.917969 24.582031 11.632812 24.582031 C 12.285156 24.582031 12.933594 24.582031 13.585938 24.582031 C 14.257812 24.585938 14.925781 24.585938 15.597656 24.585938 C 15.972656 24.585938 16.347656 24.585938 16.722656 24.585938 C 17.042969 24.585938 17.363281 24.585938 17.683594 24.585938 C 17.847656 24.585938 18.007812 24.585938 18.171875 24.585938 C 19.792969 24.589844 21.203125 24.25 22.460938 23.191406 C 22.507812 23.152344 22.558594 23.113281 22.609375 23.070312 C 23.386719 22.398438 23.953125 21.523438 24.285156 20.554688 C 24.296875 20.519531 24.308594 20.488281 24.320312 20.457031 C 24.578125 19.644531 24.582031 18.851562 24.582031 18.007812 C 24.582031 17.875 24.582031 17.742188 24.582031 17.609375 C 24.582031 17.285156 24.582031 16.960938 24.582031 16.640625 C 24.582031 16.378906 24.582031 16.113281 24.582031 15.851562 C 24.582031 15.816406 24.582031 15.777344 24.582031 15.738281 C 24.582031 15.660156 24.582031 15.585938 24.582031 15.507812 C 24.582031 14.796875 24.582031 14.082031 24.582031 13.367188 C 24.582031 12.714844 24.582031 12.066406 24.582031 11.414062 C 24.585938 10.742188 24.585938 10.074219 24.585938 9.402344 C 24.585938 9.027344 24.585938 8.652344 24.585938 8.277344 C 24.585938 7.957031 24.585938 7.636719 24.585938 7.316406 C 24.585938 7.152344 24.585938 6.992188 24.585938 6.828125 C 24.589844 5.207031 24.25 3.796875 23.191406 2.539062 C 23.152344 2.492188 23.113281 2.441406 23.070312 2.390625 C 22.398438 1.613281 21.523438 1.046875 20.554688 0.714844 C 20.519531 0.703125 20.488281 0.691406 20.457031 0.679688 C 19.644531 0.421875 18.847656 0.417969 18.003906 0.417969 C 17.867188 0.417969 17.734375 0.417969 17.601562 0.417969 C 17.277344 0.417969 16.953125 0.417969 16.628906 0.417969 C 16.367188 0.417969 16.101562 0.417969 15.835938 0.417969 C 15.78125 0.417969 15.78125 0.417969 15.722656 0.417969 C 15.648438 0.417969 15.570312 0.417969 15.492188 0.417969 C 14.777344 0.417969 14.058594 0.417969 13.34375 0.417969 C 12.691406 0.417969 12.035156 0.417969 11.382812 0.417969 C 10.710938 0.414062 10.035156 0.414062 9.363281 0.414062 C 8.984375 0.414062 8.609375 0.414062 8.230469 0.414062 C 7.910156 0.414062 7.589844 0.414062 7.265625 0.414062 C 7.105469 0.414062 6.941406 0.414062 6.777344 0.414062 C 5.175781 0.410156 3.78125 0.761719 2.539062 1.804688 Z M 2.539062 1.804688 "/>
<path style=" stroke:none;fill-rule:nonzero;fill:rgb(82.745099%,82.745099%,82.745099%);fill-opacity:1;" d="M 6.59375 1.160156 C 6.644531 1.160156 6.695312 1.160156 6.75 1.160156 C 6.921875 1.15625 7.09375 1.160156 7.265625 1.160156 C 7.386719 1.160156 7.511719 1.15625 7.632812 1.15625 C 7.933594 1.15625 8.234375 1.15625 8.53125 1.15625 C 8.777344 1.15625 9.019531 1.15625 9.265625 1.15625 C 9.300781 1.15625 9.335938 1.15625 9.371094 1.15625 C 9.441406 1.15625 9.511719 1.15625 9.582031 1.15625 C 10.246094 1.15625 10.90625 1.15625 11.570312 1.15625 C 12.171875 1.15625 12.777344 1.15625 13.382812 1.15625 C 14.003906 1.15625 14.625 1.152344 15.246094 1.152344 C 15.597656 1.152344 15.945312 1.152344 16.292969 1.152344 C 16.621094 1.152344 16.949219 1.152344 17.277344 1.152344 C 17.398438 1.152344 17.515625 1.152344 17.636719 1.152344 C 18.453125 1.152344 19.199219 1.191406 19.972656 1.472656 C 20.015625 1.488281 20.054688 1.503906 20.097656 1.519531 C 20.695312 1.738281 21.230469 2.042969 21.726562 2.441406 C 21.796875 2.496094 21.796875 2.496094 21.871094 2.554688 C 22.210938 2.84375 22.210938 2.84375 22.234375 3.011719 C 22.214844 3.125 22.214844 3.125 22.117188 3.222656 C 22.003906 3.242188 22.003906 3.242188 21.875 3.222656 C 21.769531 3.140625 21.769531 3.140625 21.660156 3.03125 C 20.730469 2.15625 19.386719 1.644531 18.117188 1.648438 C 18.066406 1.648438 18.015625 1.648438 17.964844 1.644531 C 17.796875 1.644531 17.625 1.644531 17.457031 1.644531 C 17.335938 1.644531 17.214844 1.644531 17.09375 1.644531 C 16.796875 1.644531 16.5 1.644531 16.207031 1.644531 C 15.964844 1.644531 15.722656 1.644531 15.484375 1.644531 C 14.800781 1.640625 14.113281 1.640625 13.429688 1.640625 C 13.394531 1.640625 13.359375 1.640625 13.320312 1.640625 C 13.28125 1.640625 13.246094 1.640625 13.207031 1.640625 C 12.613281 1.640625 12.015625 1.640625 11.417969 1.640625 C 10.804688 1.636719 10.191406 1.636719 9.574219 1.636719 C 9.230469 1.636719 8.886719 1.636719 8.542969 1.636719 C 8.21875 1.636719 7.894531 1.636719 7.570312 1.636719 C 7.453125 1.636719 7.335938 1.636719 7.21875 1.636719 C 5.667969 1.628906 4.320312 2.019531 3.183594 3.109375 C 2.277344 4.007812 1.65625 5.257812 1.648438 6.550781 C 1.648438 6.597656 1.648438 6.644531 1.648438 6.691406 C 1.648438 6.746094 1.648438 6.796875 1.644531 6.847656 C 1.644531 7.019531 1.644531 7.191406 1.644531 7.363281 C 1.644531 7.488281 1.644531 7.613281 1.644531 7.734375 C 1.644531 8.035156 1.644531 8.335938 1.644531 8.636719 C 1.644531 8.882812 1.644531 9.125 1.644531 9.371094 C 1.640625 10.066406 1.640625 10.761719 1.640625 11.457031 C 1.640625 11.492188 1.640625 11.53125 1.640625 11.570312 C 1.640625 11.605469 1.640625 11.644531 1.640625 11.683594 C 1.640625 12.289062 1.640625 12.894531 1.640625 13.5 C 1.636719 14.125 1.636719 14.746094 1.636719 15.371094 C 1.636719 15.722656 1.636719 16.070312 1.636719 16.421875 C 1.636719 16.75 1.636719 17.078125 1.636719 17.40625 C 1.636719 17.527344 1.636719 17.648438 1.636719 17.769531 C 1.628906 19.414062 2.085938 20.757812 3.242188 21.945312 C 4.167969 22.824219 5.386719 23.347656 6.664062 23.347656 C 6.714844 23.347656 6.765625 23.347656 6.820312 23.347656 C 6.992188 23.347656 7.164062 23.347656 7.335938 23.347656 C 7.460938 23.347656 7.585938 23.347656 7.707031 23.347656 C 8.078125 23.351562 8.449219 23.351562 8.820312 23.351562 C 8.996094 23.351562 9.171875 23.351562 9.347656 23.351562 C 9.929688 23.351562 10.511719 23.355469 11.097656 23.355469 C 11.246094 23.355469 11.398438 23.355469 11.550781 23.355469 C 11.585938 23.355469 11.625 23.355469 11.664062 23.355469 C 12.273438 23.355469 12.878906 23.355469 13.488281 23.359375 C 14.113281 23.359375 14.738281 23.359375 15.363281 23.359375 C 15.710938 23.359375 16.0625 23.359375 16.414062 23.363281 C 16.742188 23.363281 17.074219 23.363281 17.402344 23.363281 C 17.523438 23.363281 17.644531 23.363281 17.765625 23.363281 C 19.410156 23.371094 20.757812 22.914062 21.945312 21.757812 C 22.734375 20.925781 23.34375 19.742188 23.347656 18.578125 C 23.347656 18.527344 23.347656 18.472656 23.347656 18.417969 C 23.347656 18.363281 23.347656 18.304688 23.347656 18.246094 C 23.347656 18.1875 23.347656 18.125 23.347656 18.066406 C 23.351562 17.933594 23.351562 17.804688 23.351562 17.671875 C 23.351562 17.464844 23.351562 17.257812 23.355469 17.054688 C 23.359375 16.464844 23.359375 15.878906 23.363281 15.289062 C 23.363281 14.964844 23.367188 14.640625 23.367188 14.316406 C 23.371094 14.109375 23.371094 13.90625 23.371094 13.699219 C 23.371094 13.542969 23.371094 13.386719 23.375 13.226562 C 23.375 13.171875 23.375 13.113281 23.375 13.054688 C 23.375 13.003906 23.375 12.949219 23.375 12.898438 C 23.375 12.851562 23.375 12.808594 23.375 12.761719 C 23.386719 12.644531 23.386719 12.644531 23.484375 12.5 C 23.640625 12.492188 23.640625 12.492188 23.777344 12.5 C 23.863281 12.648438 23.890625 12.753906 23.890625 12.921875 C 23.890625 12.964844 23.890625 13.011719 23.890625 13.058594 C 23.890625 13.132812 23.890625 13.132812 23.890625 13.207031 C 23.890625 13.285156 23.890625 13.285156 23.890625 13.367188 C 23.890625 13.539062 23.890625 13.710938 23.890625 13.886719 C 23.890625 14.007812 23.890625 14.128906 23.890625 14.25 C 23.890625 14.535156 23.890625 14.820312 23.890625 15.109375 C 23.890625 15.398438 23.890625 15.691406 23.890625 15.980469 C 23.890625 16.230469 23.890625 16.480469 23.890625 16.730469 C 23.890625 16.851562 23.890625 16.96875 23.890625 17.089844 C 23.894531 18.992188 23.632812 20.628906 22.3125 22.070312 C 22.28125 22.109375 22.246094 22.148438 22.207031 22.1875 C 21.355469 23.09375 20.0625 23.75 18.8125 23.835938 C 18.675781 23.839844 18.535156 23.839844 18.398438 23.839844 C 18.34375 23.839844 18.292969 23.839844 18.238281 23.84375 C 18.0625 23.84375 17.890625 23.84375 17.714844 23.84375 C 17.589844 23.84375 17.464844 23.84375 17.339844 23.84375 C 17.03125 23.84375 16.726562 23.84375 16.421875 23.84375 C 16.175781 23.84375 15.925781 23.84375 15.679688 23.84375 C 14.972656 23.847656 14.265625 23.847656 13.5625 23.847656 C 13.503906 23.847656 13.503906 23.847656 13.445312 23.847656 C 13.386719 23.847656 13.386719 23.847656 13.332031 23.847656 C 12.714844 23.847656 12.097656 23.847656 11.484375 23.847656 C 10.851562 23.851562 10.21875 23.851562 9.582031 23.851562 C 9.230469 23.851562 8.875 23.851562 8.519531 23.851562 C 8.183594 23.851562 7.851562 23.851562 7.515625 23.851562 C 7.394531 23.851562 7.273438 23.851562 7.148438 23.851562 C 5.449219 23.859375 4.023438 23.375 2.78125 22.167969 C 1.503906 20.894531 1.121094 19.308594 1.117188 17.554688 C 1.117188 17.402344 1.117188 17.25 1.117188 17.097656 C 1.117188 16.984375 1.117188 16.875 1.117188 16.765625 C 1.113281 16.464844 1.113281 16.164062 1.113281 15.863281 C 1.113281 15.675781 1.113281 15.488281 1.113281 15.300781 C 1.113281 14.679688 1.113281 14.054688 1.113281 13.433594 C 1.113281 13.398438 1.113281 13.367188 1.113281 13.332031 C 1.113281 13.300781 1.113281 13.265625 1.113281 13.230469 C 1.113281 12.6875 1.113281 12.148438 1.113281 11.605469 C 1.113281 11.046875 1.113281 10.488281 1.113281 9.925781 C 1.113281 9.613281 1.113281 9.300781 1.109375 8.988281 C 1.109375 8.695312 1.109375 8.398438 1.109375 8.105469 C 1.109375 8 1.109375 7.890625 1.109375 7.785156 C 1.105469 5.929688 1.402344 4.332031 2.683594 2.929688 C 2.71875 2.890625 2.753906 2.851562 2.792969 2.8125 C 3.753906 1.789062 5.191406 1.152344 6.59375 1.160156 Z M 6.59375 1.160156 "/>
<path style=" stroke:none;fill-rule:nonzero;fill:rgb(82.352942%,82.352942%,82.352942%);fill-opacity:1;" d="M 17.382812 6.398438 C 17.429688 6.433594 17.476562 6.46875 17.523438 6.503906 C 19.066406 7.722656 20.058594 9.5 20.34375 11.441406 C 20.378906 11.785156 20.378906 12.128906 20.378906 12.472656 C 20.378906 12.53125 20.378906 12.53125 20.378906 12.589844 C 20.378906 13.226562 20.332031 13.835938 20.164062 14.453125 C 20.152344 14.511719 20.152344 14.511719 20.136719 14.566406 C 19.769531 15.863281 19.074219 16.941406 18.164062 17.921875 C 18.136719 17.949219 18.113281 17.976562 18.085938 18.007812 C 16.726562 19.4375 14.714844 20.148438 12.78125 20.222656 C 11.664062 20.242188 10.246094 20.078125 9.28125 19.472656 C 9.140625 19.386719 9.039062 19.328125 8.875 19.351562 C 8.832031 19.363281 8.792969 19.375 8.75 19.390625 C 8.703125 19.402344 8.65625 19.417969 8.609375 19.433594 C 8.527344 19.457031 8.527344 19.457031 8.445312 19.484375 C 8.390625 19.5 8.332031 19.519531 8.273438 19.539062 C 8.105469 19.589844 7.941406 19.640625 7.777344 19.695312 C 7.667969 19.730469 7.558594 19.765625 7.449219 19.800781 C 7.136719 19.902344 6.824219 20 6.515625 20.101562 C 6.324219 20.164062 6.132812 20.226562 5.9375 20.285156 C 5.867188 20.308594 5.792969 20.332031 5.722656 20.355469 C 5.621094 20.390625 5.519531 20.421875 5.417969 20.453125 C 5.359375 20.472656 5.300781 20.492188 5.242188 20.511719 C 5.074219 20.558594 4.914062 20.59375 4.734375 20.605469 C 4.6875 20.574219 4.640625 20.539062 4.589844 20.507812 C 4.617188 20.214844 4.679688 19.960938 4.773438 19.683594 C 4.789062 19.644531 4.800781 19.605469 4.816406 19.5625 C 4.84375 19.472656 4.875 19.386719 4.902344 19.300781 C 4.949219 19.164062 4.996094 19.027344 5.042969 18.890625 C 5.1875 18.457031 5.335938 18.023438 5.488281 17.59375 C 5.515625 17.519531 5.539062 17.449219 5.566406 17.375 C 5.613281 17.242188 5.660156 17.109375 5.707031 16.976562 C 5.738281 16.886719 5.738281 16.886719 5.769531 16.796875 C 5.789062 16.746094 5.808594 16.695312 5.828125 16.640625 C 5.894531 16.355469 5.757812 16.144531 5.632812 15.894531 C 5.292969 15.191406 5.050781 14.445312 4.929688 13.671875 C 4.921875 13.617188 4.914062 13.558594 4.90625 13.503906 C 4.800781 12.644531 4.820312 11.679688 5.03125 10.839844 C 5.039062 10.800781 5.046875 10.761719 5.058594 10.71875 C 5.347656 9.527344 5.875 8.441406 6.6875 7.519531 C 6.722656 7.484375 6.722656 7.484375 6.753906 7.445312 C 8.164062 5.84375 10.070312 4.929688 12.199219 4.792969 C 14.0625 4.683594 15.910156 5.261719 17.382812 6.398438 Z M 7.234375 7.5625 C 5.796875 9.136719 5.238281 11.082031 5.320312 13.183594 C 5.398438 14.207031 5.730469 15.308594 6.3125 16.160156 C 6.417969 16.453125 6.230469 16.835938 6.136719 17.113281 C 6.109375 17.1875 6.109375 17.1875 6.085938 17.261719 C 6.03125 17.417969 5.980469 17.578125 5.925781 17.734375 C 5.890625 17.835938 5.859375 17.941406 5.824219 18.042969 C 5.644531 18.574219 5.464844 19.101562 5.277344 19.628906 C 5.203125 19.820312 5.203125 19.820312 5.175781 20.019531 C 5.566406 19.917969 5.945312 19.800781 6.328125 19.675781 C 6.429688 19.644531 6.527344 19.613281 6.628906 19.578125 C 6.910156 19.488281 7.195312 19.398438 7.476562 19.304688 C 7.652344 19.25 7.828125 19.191406 8 19.136719 C 8.066406 19.117188 8.132812 19.09375 8.199219 19.074219 C 8.292969 19.042969 8.382812 19.011719 8.476562 18.984375 C 8.554688 18.957031 8.554688 18.957031 8.636719 18.933594 C 8.960938 18.855469 9.171875 18.898438 9.464844 19.050781 C 10.339844 19.480469 11.328125 19.742188 12.304688 19.773438 C 12.351562 19.777344 12.402344 19.777344 12.449219 19.78125 C 14.148438 19.816406 15.804688 19.253906 17.140625 18.210938 C 17.164062 18.191406 17.191406 18.171875 17.21875 18.148438 C 18.742188 16.945312 19.675781 15.203125 19.921875 13.28125 C 19.957031 12.488281 19.980469 11.660156 19.773438 10.890625 C 19.765625 10.851562 19.757812 10.816406 19.746094 10.777344 C 19.523438 9.890625 19.15625 9.035156 18.601562 8.300781 C 18.558594 8.238281 18.558594 8.238281 18.511719 8.179688 C 17.261719 6.566406 15.546875 5.566406 13.523438 5.273438 C 13.328125 5.25 13.136719 5.234375 12.9375 5.226562 C 12.894531 5.222656 12.851562 5.21875 12.804688 5.21875 C 10.6875 5.171875 8.707031 6.0625 7.234375 7.5625 Z M 7.234375 7.5625 "/>
<path style=" stroke:none;fill-rule:nonzero;fill:rgb(82.352942%,82.352942%,82.352942%);fill-opacity:1;" d="M 16.820312 7.476562 C 16.945312 7.585938 17.066406 7.699219 17.1875 7.8125 C 17.230469 7.851562 17.273438 7.894531 17.320312 7.9375 C 18.476562 9.042969 19.144531 10.636719 19.199219 12.234375 C 19.226562 13.96875 18.6875 15.644531 17.464844 16.90625 C 17.421875 16.949219 17.378906 16.996094 17.335938 17.039062 C 17.292969 17.082031 17.253906 17.125 17.214844 17.167969 C 16.140625 18.300781 14.539062 18.957031 12.988281 19.007812 C 12.339844 19.019531 11.714844 19.007812 11.085938 18.847656 C 11.050781 18.839844 11.019531 18.832031 10.984375 18.824219 C 10.355469 18.671875 9.71875 18.425781 9.179688 18.066406 C 8.875 18.082031 8.609375 18.164062 8.320312 18.261719 C 8.234375 18.289062 8.144531 18.320312 8.054688 18.347656 C 7.917969 18.394531 7.777344 18.4375 7.640625 18.484375 C 7.503906 18.53125 7.371094 18.574219 7.234375 18.617188 C 7.195312 18.632812 7.152344 18.644531 7.109375 18.660156 C 6.75 18.777344 6.75 18.777344 6.542969 18.703125 C 6.527344 18.683594 6.511719 18.667969 6.492188 18.652344 C 6.496094 18.339844 6.582031 18.0625 6.6875 17.773438 C 6.71875 17.691406 6.746094 17.609375 6.773438 17.527344 C 6.820312 17.398438 6.867188 17.273438 6.914062 17.144531 C 6.957031 17.019531 7 16.894531 7.046875 16.773438 C 7.058594 16.734375 7.074219 16.695312 7.085938 16.65625 C 7.171875 16.414062 7.199219 16.261719 7.082031 16.019531 C 7.066406 15.988281 7.046875 15.960938 7.03125 15.929688 C 7.007812 15.894531 6.988281 15.863281 6.96875 15.828125 C 6.945312 15.789062 6.925781 15.753906 6.902344 15.714844 C 6.40625 14.84375 6.089844 13.851562 6.054688 12.84375 C 6.054688 12.789062 6.050781 12.738281 6.046875 12.6875 C 6.015625 10.90625 6.683594 9.230469 7.90625 7.941406 C 10.25 5.550781 14.242188 5.296875 16.820312 7.476562 Z M 10.984375 6.640625 C 10.953125 6.648438 10.921875 6.65625 10.890625 6.664062 C 10.101562 6.875 9.359375 7.292969 8.742188 7.8125 C 8.699219 7.847656 8.65625 7.882812 8.613281 7.917969 C 7.363281 9.007812 6.628906 10.472656 6.503906 12.125 C 6.421875 13.457031 6.765625 14.871094 7.597656 15.925781 C 7.726562 16.1875 7.617188 16.480469 7.53125 16.742188 C 7.519531 16.777344 7.507812 16.808594 7.496094 16.84375 C 7.476562 16.894531 7.476562 16.894531 7.460938 16.949219 C 7.421875 17.058594 7.382812 17.167969 7.34375 17.277344 C 7.308594 17.390625 7.269531 17.5 7.230469 17.613281 C 7.207031 17.683594 7.183594 17.75 7.160156 17.820312 C 7.101562 17.988281 7.101562 17.988281 7.078125 18.164062 C 7.558594 18.039062 8.027344 17.886719 8.5 17.726562 C 8.585938 17.699219 8.585938 17.699219 8.675781 17.667969 C 8.726562 17.652344 8.78125 17.632812 8.835938 17.617188 C 9.0625 17.558594 9.21875 17.550781 9.429688 17.652344 C 9.511719 17.703125 9.511719 17.703125 9.59375 17.753906 C 10.917969 18.550781 12.539062 18.785156 14.042969 18.417969 C 14.113281 18.398438 14.1875 18.378906 14.257812 18.359375 C 14.289062 18.351562 14.320312 18.34375 14.355469 18.335938 C 15.34375 18.070312 16.207031 17.492188 16.945312 16.796875 C 16.976562 16.765625 17.007812 16.738281 17.042969 16.707031 C 17.960938 15.84375 18.484375 14.597656 18.703125 13.378906 C 18.707031 13.34375 18.714844 13.308594 18.722656 13.269531 C 18.886719 12.097656 18.648438 10.863281 18.117188 9.8125 C 18.09375 9.769531 18.070312 9.726562 18.046875 9.679688 C 17.769531 9.144531 17.40625 8.691406 16.992188 8.25 C 16.960938 8.21875 16.933594 8.1875 16.902344 8.152344 C 16.609375 7.84375 16.269531 7.609375 15.917969 7.375 C 15.871094 7.34375 15.828125 7.3125 15.78125 7.28125 C 15.136719 6.875 14.371094 6.613281 13.625 6.492188 C 13.546875 6.480469 13.546875 6.480469 13.472656 6.46875 C 12.636719 6.371094 11.796875 6.421875 10.984375 6.640625 Z M 10.984375 6.640625 "/>
<path style=" stroke:none;fill-rule:nonzero;fill:rgb(82.352942%,82.352942%,82.352942%);fill-opacity:1;" d="M 10.28125 8.863281 C 10.320312 8.859375 10.363281 8.859375 10.40625 8.859375 C 10.609375 8.859375 10.710938 8.863281 10.878906 8.984375 C 11.003906 9.15625 11.097656 9.328125 11.179688 9.523438 C 11.203125 9.570312 11.226562 9.621094 11.246094 9.671875 C 11.320312 9.839844 11.394531 10.011719 11.464844 10.183594 C 11.492188 10.242188 11.515625 10.300781 11.542969 10.359375 C 11.566406 10.417969 11.589844 10.472656 11.613281 10.53125 C 11.632812 10.582031 11.65625 10.632812 11.679688 10.6875 C 11.734375 10.902344 11.714844 11.085938 11.621094 11.289062 C 11.601562 11.316406 11.582031 11.347656 11.5625 11.375 C 11.542969 11.410156 11.519531 11.441406 11.496094 11.476562 C 11.425781 11.570312 11.347656 11.660156 11.265625 11.746094 C 11.121094 11.90625 11.097656 12.039062 11.085938 12.257812 C 11.035156 12.304688 11.035156 12.304688 10.917969 12.320312 C 10.789062 12.304688 10.789062 12.304688 10.703125 12.226562 C 10.617188 12.050781 10.609375 11.964844 10.644531 11.765625 C 10.734375 11.636719 10.832031 11.515625 10.933594 11.398438 C 11.136719 11.167969 11.136719 11.167969 11.167969 10.875 C 11.132812 10.699219 11.082031 10.550781 11.011719 10.382812 C 10.976562 10.300781 10.976562 10.300781 10.941406 10.214844 C 10.914062 10.15625 10.890625 10.097656 10.863281 10.039062 C 10.839844 9.980469 10.8125 9.921875 10.789062 9.863281 C 10.695312 9.601562 10.695312 9.601562 10.546875 9.375 C 10.132812 9.328125 10.132812 9.328125 9.761719 9.480469 C 9.730469 9.527344 9.699219 9.574219 9.667969 9.617188 C 9.632812 9.65625 9.601562 9.691406 9.566406 9.730469 C 9.246094 10.183594 9.1875 10.636719 9.226562 11.179688 C 9.382812 11.925781 9.847656 12.546875 10.304688 13.132812 C 10.339844 13.183594 10.375 13.230469 10.414062 13.277344 C 11.417969 14.546875 12.910156 15.570312 14.550781 15.773438 C 15.074219 15.789062 15.527344 15.574219 15.917969 15.234375 C 15.945312 15.214844 15.96875 15.191406 15.996094 15.171875 C 16.097656 15.046875 16.113281 14.921875 16.148438 14.765625 C 16.164062 14.683594 16.164062 14.683594 16.183594 14.597656 C 16.214844 14.460938 16.214844 14.460938 16.210938 14.355469 C 16.011719 14.257812 15.816406 14.160156 15.617188 14.0625 C 15.550781 14.03125 15.480469 13.996094 15.414062 13.964844 C 15.316406 13.917969 15.222656 13.867188 15.125 13.820312 C 15.09375 13.804688 15.0625 13.792969 15.03125 13.777344 C 14.871094 13.699219 14.785156 13.671875 14.601562 13.671875 C 14.523438 13.730469 14.523438 13.730469 14.460938 13.816406 C 14.425781 13.859375 14.425781 13.859375 14.386719 13.90625 C 14.347656 13.953125 14.347656 13.953125 14.308594 14 C 13.976562 14.414062 13.976562 14.414062 13.769531 14.550781 C 13.121094 14.59375 12.40625 14.054688 11.914062 13.671875 C 11.722656 13.5 11.722656 13.5 11.699219 13.347656 C 11.71875 13.234375 11.71875 13.234375 11.816406 13.132812 C 11.953125 13.117188 12.027344 13.113281 12.140625 13.195312 C 12.167969 13.222656 12.195312 13.25 12.222656 13.277344 C 12.414062 13.457031 12.617188 13.582031 12.84375 13.707031 C 12.875 13.726562 12.90625 13.746094 12.941406 13.765625 C 13.160156 13.886719 13.382812 13.976562 13.625 14.0625 C 13.707031 13.960938 13.792969 13.859375 13.878906 13.761719 C 13.902344 13.730469 13.925781 13.703125 13.953125 13.675781 C 13.976562 13.648438 14 13.617188 14.023438 13.589844 C 14.046875 13.5625 14.070312 13.535156 14.09375 13.507812 C 14.152344 13.4375 14.210938 13.363281 14.265625 13.289062 C 14.355469 13.183594 14.355469 13.183594 14.527344 13.128906 C 14.789062 13.113281 14.996094 13.21875 15.226562 13.328125 C 15.355469 13.390625 15.484375 13.449219 15.613281 13.507812 C 15.714844 13.554688 15.816406 13.601562 15.917969 13.652344 C 15.96875 13.671875 16.015625 13.695312 16.066406 13.71875 C 16.117188 13.742188 16.164062 13.765625 16.210938 13.789062 C 16.253906 13.808594 16.296875 13.828125 16.339844 13.847656 C 16.492188 13.9375 16.621094 14.035156 16.683594 14.203125 C 16.734375 14.671875 16.632812 15.148438 16.351562 15.527344 C 15.910156 16 15.292969 16.238281 14.660156 16.269531 C 14.441406 16.265625 14.242188 16.21875 14.027344 16.164062 C 13.988281 16.152344 13.949219 16.140625 13.910156 16.128906 C 12.070312 15.613281 10.648438 14.570312 9.570312 12.988281 C 9.550781 12.957031 9.527344 12.929688 9.507812 12.898438 C 9.261719 12.539062 9.042969 12.175781 8.886719 11.765625 C 8.871094 11.726562 8.855469 11.6875 8.839844 11.644531 C 8.644531 11.046875 8.664062 10.351562 8.949219 9.789062 C 9.277344 9.210938 9.59375 8.859375 10.28125 8.863281 Z M 10.28125 8.863281 "/>
<path style=" stroke:none;fill-rule:nonzero;fill:rgb(83.529413%,83.529413%,83.529413%);fill-opacity:1;" d="M 23.484375 8.203125 C 23.640625 8.195312 23.640625 8.195312 23.78125 8.203125 C 23.878906 8.367188 23.890625 8.496094 23.890625 8.6875 C 23.890625 8.746094 23.890625 8.800781 23.890625 8.863281 C 23.890625 8.925781 23.890625 8.988281 23.890625 9.050781 C 23.890625 9.117188 23.890625 9.179688 23.890625 9.246094 C 23.890625 9.382812 23.890625 9.519531 23.890625 9.652344 C 23.890625 9.828125 23.890625 10.003906 23.890625 10.175781 C 23.890625 10.34375 23.890625 10.507812 23.890625 10.675781 C 23.890625 10.738281 23.890625 10.800781 23.890625 10.863281 C 23.890625 10.921875 23.890625 10.980469 23.890625 11.039062 C 23.890625 11.117188 23.890625 11.117188 23.890625 11.195312 C 23.875 11.332031 23.851562 11.410156 23.78125 11.523438 C 23.6875 11.570312 23.6875 11.570312 23.585938 11.570312 C 23.449219 11.46875 23.394531 11.410156 23.363281 11.238281 C 23.363281 11.1875 23.363281 11.132812 23.363281 11.078125 C 23.363281 11.019531 23.363281 10.957031 23.363281 10.898438 C 23.363281 10.832031 23.367188 10.765625 23.367188 10.699219 C 23.367188 10.632812 23.367188 10.566406 23.367188 10.5 C 23.367188 10.359375 23.367188 10.21875 23.367188 10.078125 C 23.371094 9.894531 23.371094 9.714844 23.371094 9.535156 C 23.371094 9.398438 23.371094 9.257812 23.371094 9.121094 C 23.371094 9.054688 23.371094 8.984375 23.371094 8.917969 C 23.371094 8.828125 23.375 8.734375 23.375 8.640625 C 23.375 8.589844 23.375 8.535156 23.375 8.480469 C 23.390625 8.351562 23.390625 8.351562 23.484375 8.203125 Z M 23.484375 8.203125 "/>
</g>
</svg>
