<?xml version="1.0" encoding="UTF-8"?>
<svg xmlns="http://www.w3.org/2000/svg" xmlns:xlink="http://www.w3.org/1999/xlink" width="24px" height="24px" viewBox="0 0 24 24" version="1.1">
<g id="surface1">
<path style=" stroke:none;fill-rule:nonzero;fill:rgb(100%,100%,100%);fill-opacity:1;" d="M 13.921875 2.390625 C 13.964844 2.398438 14.007812 2.410156 14.050781 2.417969 C 15.320312 2.707031 16.570312 3.207031 17.625 3.984375 C 17.675781 4.019531 17.722656 4.054688 17.773438 4.09375 C 18.109375 4.34375 18.421875 4.613281 18.726562 4.898438 C 18.773438 4.945312 18.820312 4.992188 18.871094 5.039062 C 19.519531 5.648438 20.039062 6.355469 20.484375 7.125 C 20.503906 7.15625 20.519531 7.1875 20.539062 7.21875 C 21.785156 9.394531 22.105469 12.09375 21.464844 14.507812 C 21.40625 14.707031 21.347656 14.898438 21.28125 15.09375 C 21.265625 15.144531 21.265625 15.144531 21.246094 15.195312 C 20.800781 16.515625 20.070312 17.722656 19.097656 18.726562 C 19.027344 18.800781 18.960938 18.871094 18.890625 18.945312 C 17.582031 20.320312 15.738281 21.273438 13.875 21.609375 C 13.84375 21.613281 13.8125 21.621094 13.777344 21.628906 C 13.210938 21.726562 12.660156 21.769531 12.085938 21.765625 C 11.960938 21.765625 11.839844 21.765625 11.714844 21.765625 C 10.289062 21.761719 10.289062 21.761719 9.902344 21.390625 C 9.769531 21.21875 9.71875 21.03125 9.703125 20.8125 C 9.742188 20.574219 9.816406 20.417969 9.984375 20.25 C 10.269531 20.046875 10.601562 20.082031 10.9375 20.132812 C 12.933594 20.414062 15.125 19.890625 16.75 18.683594 C 16.824219 18.628906 16.894531 18.574219 16.96875 18.515625 C 17.011719 18.484375 17.054688 18.453125 17.097656 18.417969 C 18.785156 17.101562 19.835938 15.152344 20.132812 13.042969 C 20.15625 12.851562 20.164062 12.660156 20.164062 12.46875 C 20.167969 12.433594 20.167969 12.398438 20.167969 12.363281 C 20.179688 11.308594 20.179688 11.308594 20.015625 10.265625 C 20.003906 10.222656 19.996094 10.179688 19.984375 10.136719 C 19.8125 9.460938 19.582031 8.824219 19.265625 8.203125 C 19.25 8.171875 19.234375 8.140625 19.21875 8.113281 C 18.882812 7.453125 18.417969 6.859375 17.90625 6.328125 C 17.863281 6.285156 17.824219 6.238281 17.78125 6.195312 C 16.332031 4.667969 14.226562 3.871094 12.144531 3.800781 C 10.089844 3.757812 8.105469 4.519531 6.5625 5.859375 C 6.527344 5.886719 6.496094 5.914062 6.460938 5.945312 C 6.234375 6.132812 6.046875 6.339844 5.859375 6.5625 C 5.824219 6.601562 5.789062 6.640625 5.753906 6.679688 C 4.375 8.261719 3.699219 10.398438 3.808594 12.484375 C 3.894531 13.691406 4.207031 14.867188 4.808594 15.921875 C 4.839844 15.980469 4.839844 15.980469 4.871094 16.039062 C 4.898438 16.085938 4.898438 16.085938 4.929688 16.136719 C 5.070312 16.582031 4.90625 17.035156 4.785156 17.46875 C 4.765625 17.535156 4.746094 17.605469 4.726562 17.675781 C 4.679688 17.859375 4.628906 18.039062 4.578125 18.222656 C 4.527344 18.410156 4.476562 18.59375 4.425781 18.78125 C 4.324219 19.144531 4.226562 19.511719 4.125 19.875 C 4.152344 19.867188 4.183594 19.859375 4.210938 19.847656 C 4.847656 19.664062 5.488281 19.476562 6.128906 19.300781 C 6.210938 19.28125 6.292969 19.257812 6.375 19.234375 C 7.492188 18.921875 7.492188 18.921875 7.871094 19.105469 C 8.074219 19.265625 8.179688 19.40625 8.222656 19.660156 C 8.238281 19.914062 8.1875 20.089844 8.054688 20.308594 C 7.742188 20.605469 7.261719 20.679688 6.855469 20.792969 C 6.78125 20.8125 6.710938 20.832031 6.636719 20.851562 C 6.445312 20.90625 6.253906 20.957031 6.0625 21.007812 C 5.871094 21.0625 5.683594 21.113281 5.492188 21.167969 C 5.269531 21.226562 5.046875 21.289062 4.824219 21.347656 C 4.515625 21.433594 4.207031 21.519531 3.898438 21.609375 C 3.851562 21.625 3.804688 21.636719 3.757812 21.652344 C 3.675781 21.675781 3.59375 21.699219 3.511719 21.726562 C 3.171875 21.824219 2.832031 21.824219 2.511719 21.671875 C 2.335938 21.511719 2.21875 21.367188 2.191406 21.128906 C 2.191406 20.851562 2.230469 20.613281 2.3125 20.351562 C 2.339844 20.269531 2.363281 20.191406 2.386719 20.109375 C 2.398438 20.070312 2.414062 20.027344 2.425781 19.984375 C 2.496094 19.761719 2.558594 19.535156 2.625 19.3125 C 2.710938 19.027344 2.792969 18.742188 2.882812 18.457031 C 3.328125 17.234375 3.328125 17.234375 3.136719 16.003906 C 3.070312 15.886719 3 15.78125 2.925781 15.671875 C 2.808594 15.476562 2.746094 15.265625 2.679688 15.050781 C 2.660156 14.984375 2.660156 14.984375 2.640625 14.914062 C 1.914062 12.496094 2.078125 9.753906 3.273438 7.5 C 4.605469 5.097656 6.691406 3.347656 9.335938 2.566406 C 9.503906 2.519531 9.675781 2.476562 9.84375 2.4375 C 9.90625 2.421875 9.90625 2.421875 9.96875 2.40625 C 11.207031 2.128906 12.683594 2.109375 13.921875 2.390625 Z M 13.921875 2.390625 "/>
<path style=" stroke:none;fill-rule:nonzero;fill:rgb(100%,100%,100%);fill-opacity:1;" d="M 10.023438 6.804688 C 10.273438 6.980469 10.4375 7.171875 10.605469 7.421875 C 10.65625 7.496094 10.710938 7.570312 10.761719 7.644531 C 10.789062 7.683594 10.816406 7.722656 10.84375 7.761719 C 10.921875 7.871094 11 7.980469 11.082031 8.089844 C 11.578125 8.765625 11.578125 8.765625 11.625 9.140625 C 11.628906 9.171875 11.632812 9.203125 11.640625 9.238281 C 11.667969 9.652344 11.5 10.082031 11.371094 10.472656 C 11.359375 10.503906 11.347656 10.539062 11.335938 10.574219 C 11.3125 10.636719 11.292969 10.703125 11.269531 10.769531 C 11.210938 10.941406 11.210938 10.941406 11.230469 11.113281 C 11.585938 11.59375 11.96875 11.996094 12.433594 12.363281 C 12.515625 12.429688 12.597656 12.5 12.675781 12.570312 C 12.710938 12.601562 12.746094 12.628906 12.78125 12.660156 C 12.828125 12.703125 12.828125 12.703125 12.875 12.746094 C 13.160156 12.878906 13.53125 12.703125 13.8125 12.609375 C 14.34375 12.433594 14.851562 12.316406 15.382812 12.5625 C 15.773438 12.789062 16.136719 13.070312 16.5 13.335938 C 16.578125 13.394531 16.65625 13.449219 16.730469 13.503906 C 17.066406 13.75 17.355469 14.066406 17.4375 14.484375 C 17.480469 14.957031 17.464844 15.367188 17.175781 15.757812 C 17.089844 15.859375 17 15.953125 16.90625 16.046875 C 16.808594 16.144531 16.714844 16.242188 16.617188 16.34375 C 16.542969 16.421875 16.464844 16.503906 16.386719 16.582031 C 16.347656 16.621094 16.3125 16.660156 16.273438 16.699219 C 15.828125 17.148438 15.335938 17.449219 14.691406 17.460938 C 14.652344 17.457031 14.613281 17.457031 14.570312 17.457031 C 14.527344 17.457031 14.484375 17.457031 14.4375 17.457031 C 14.070312 17.449219 13.75 17.382812 13.40625 17.25 C 13.375 17.238281 13.347656 17.226562 13.316406 17.214844 C 12.105469 16.742188 11.054688 15.90625 10.113281 15.023438 C 9.996094 14.914062 9.875 14.808594 9.757812 14.703125 C 9.355469 14.34375 8.964844 13.964844 8.617188 13.554688 C 8.546875 13.472656 8.476562 13.390625 8.40625 13.3125 C 7.40625 12.183594 6.433594 10.757812 6.507812 9.191406 C 6.570312 8.480469 6.996094 7.96875 7.480469 7.492188 C 7.558594 7.414062 7.636719 7.335938 7.710938 7.257812 C 8.347656 6.617188 9.183594 6.261719 10.023438 6.804688 Z M 8.898438 8.417969 C 8.734375 8.578125 8.566406 8.730469 8.386719 8.871094 C 8.191406 9.039062 8.078125 9.226562 8.050781 9.488281 C 8.09375 10.574219 8.976562 11.589844 9.679688 12.34375 C 9.769531 12.441406 9.859375 12.539062 9.945312 12.640625 C 10.152344 12.875 10.371094 13.097656 10.589844 13.316406 C 10.632812 13.355469 10.671875 13.394531 10.710938 13.4375 C 10.945312 13.671875 11.1875 13.894531 11.4375 14.109375 C 11.507812 14.171875 11.507812 14.171875 11.578125 14.234375 C 12.941406 15.425781 12.941406 15.425781 14.625 15.890625 C 14.992188 15.796875 15.191406 15.589844 15.445312 15.320312 C 15.484375 15.28125 15.523438 15.238281 15.5625 15.199219 C 15.65625 15.101562 15.75 15.003906 15.84375 14.90625 C 15.660156 14.714844 15.464844 14.550781 15.253906 14.382812 C 15.222656 14.359375 15.191406 14.335938 15.160156 14.308594 C 15.101562 14.261719 15.042969 14.214844 14.980469 14.171875 C 14.90625 14.109375 14.90625 14.109375 14.816406 14.015625 C 14.578125 13.902344 14.238281 14.078125 14 14.152344 C 13.417969 14.332031 12.804688 14.417969 12.234375 14.15625 C 12.097656 14.070312 11.972656 13.976562 11.84375 13.875 C 11.808594 13.847656 11.777344 13.820312 11.742188 13.792969 C 11.4375 13.554688 11.152344 13.300781 10.875 13.03125 C 10.84375 13 10.808594 12.96875 10.773438 12.9375 C 10.476562 12.65625 10.230469 12.328125 9.984375 12 C 9.960938 11.972656 9.941406 11.941406 9.917969 11.914062 C 9.667969 11.570312 9.621094 11.246094 9.65625 10.828125 C 9.699219 10.625 9.753906 10.429688 9.8125 10.234375 C 9.828125 10.183594 9.84375 10.132812 9.859375 10.078125 C 9.875 10.027344 9.886719 9.980469 9.902344 9.929688 C 9.925781 9.855469 9.925781 9.855469 9.945312 9.785156 C 9.984375 9.65625 9.984375 9.65625 10.027344 9.5625 C 10.070312 9.472656 10.070312 9.472656 10.078125 9.328125 C 9.996094 9.160156 9.882812 9.023438 9.765625 8.878906 C 9.707031 8.800781 9.648438 8.726562 9.585938 8.648438 C 9.558594 8.613281 9.53125 8.574219 9.5 8.539062 C 9.433594 8.449219 9.371094 8.363281 9.308594 8.269531 C 9.285156 8.230469 9.261719 8.195312 9.234375 8.15625 C 9.121094 8.15625 8.984375 8.339844 8.898438 8.417969 Z M 8.898438 8.417969 "/>
</g>
</svg>
